<?xml version="1.0" encoding="UTF-8"?>
<svg id="letters_done" xmlns="http://www.w3.org/2000/svg" viewBox="0 0 4811 724.5">
  <g>
    <path d="M1905.5,721.69c-36.08,0-70.62-6.61-102.47-18.69-13.35-5.07-26.24-11.1-38.56-18-9.25-5.18-18.19-10.86-26.77-17-7.87-5.62-15.44-11.63-22.69-18-6.51-5.71-12.77-11.72-18.74-18-5.5-5.78-10.76-11.78-15.77-18-4.94-6.13-9.63-12.47-14.06-19-3.75-5.53-7.32-11.2-10.69-17-20.84-35.86-34.14-76.62-37.75-120.12-.66-7.94-1-15.98-1-24.1s.34-16.16,1-24.1c12.27-147.74,136.3-263.82,287.5-263.82,159.33,0,288.5,128.91,288.5,287.92,0,52.55-14.11,101.81-38.75,144.22" style="fill: none; stroke: #000; stroke-miterlimit: 10; stroke-width: 5px;"/>
    <path d="M2049.02,433.78c0,79.65-64.48,144.22-144.01,144.22s-144.01-64.57-144.01-144.22,64.47-144.21,144.01-144.21,144.01,64.57,144.01,144.21Z" style="fill: none; stroke: #000; stroke-miterlimit: 10; stroke-width: 5px;"/>
    <path d="M1887.2,595c-20.08-2.23-39.05-8.12-56.23-17-52.25-26.99-87.97-81.57-87.97-144.5,0-89.75,72.65-162.5,162.28-162.5s162.28,72.75,162.28,162.5c0,62.93-35.72,117.51-87.97,144.5" style="fill: none; stroke: #000; stroke-miterlimit: 10; stroke-width: 5px;"/>
    <path d="M1887.41,614c-22.67-2.39-44.09-8.99-63.46-19-9.45-4.88-18.41-10.57-26.8-17-43.25-33.05-71.15-85.26-71.15-144,0-99.96,80.81-181,180.5-181s180.5,81.04,180.5,181c0,58.74-27.9,110.95-71.15,144" style="fill: none; stroke: #000; stroke-miterlimit: 10; stroke-width: 5px;"/>
    <path d="M1886.51,632c-22.96-2.3-44.77-8.53-64.75-18-11.27-5.34-21.96-11.71-31.94-19-7.15-5.21-13.94-10.9-20.32-17-37.89-36.24-61.5-87.36-61.5-144,0-109.9,88.87-199,198.5-199s198.5,89.1,198.5,199c0,56.64-23.61,107.76-61.5,144" style="fill: none; stroke: #000; stroke-miterlimit: 10; stroke-width: 5px;"/>
    <path d="M1885.11,650c-23.83-2.34-46.51-8.55-67.44-18-11.27-5.09-22.04-11.12-32.19-18-8.51-5.76-16.59-12.11-24.18-19-5.9-5.36-11.51-11.03-16.79-17-33.92-38.31-54.51-88.74-54.51-144,0-119.87,96.93-217.05,216.5-217.05s216.5,97.18,216.5,217.05c0,55.26-20.59,105.69-54.51,144" style="fill: none; stroke: #000; stroke-miterlimit: 10; stroke-width: 5px;"/>
    <path d="M1883.79,668c-24.65-2.37-48.19-8.57-70.01-18-11.79-5.09-23.07-11.12-33.77-18-8.51-5.48-16.65-11.49-24.36-18-7.04-5.94-13.73-12.28-20.03-19-5.09-5.43-9.93-11.1-14.49-17-30.8-39.78-49.13-89.74-49.13-144,0-129.84,104.99-235.09,234.5-235.09s234.5,105.25,234.5,235.09c0,54.26-18.33,104.22-49.13,144" style="fill: none; stroke: #000; stroke-miterlimit: 10; stroke-width: 5px;"/>
    <path d="M1882.59,685c-24.49-2.31-47.96-8.15-69.9-17-12.53-5.05-24.55-11.08-35.98-18-9.03-5.46-17.68-11.47-25.92-18-7.12-5.63-13.93-11.64-20.39-18-6.14-6.02-11.96-12.37-17.45-19-4.54-5.47-8.85-11.14-12.92-17-28.38-40.82-45.03-90.46-45.03-144,0-139.25,112.6-252.13,251.5-252.13s251.5,112.88,251.5,252.13c0,53.54-16.65,103.18-45.03,144" style="fill: none; stroke: #000; stroke-miterlimit: 10; stroke-width: 5px;"/>
    <path d="M1881.18,703c-26.13-2.44-51.17-8.62-74.59-18-12.09-4.83-23.75-10.53-34.9-17-9.41-5.46-18.46-11.47-27.11-18-7.46-5.63-14.61-11.64-21.44-18-6.15-5.72-12.04-11.73-17.63-18-5.43-6.09-10.59-12.43-15.46-19-4.08-5.51-7.96-11.18-11.62-17-26.25-41.68-41.43-91.07-41.43-144,0-149.22,120.66-270.18,269.5-270.18s269.5,120.96,269.5,270.18c0,52.93-15.18,102.32-41.43,144" style="fill: none; stroke: #000; stroke-miterlimit: 10; stroke-width: 5px;"/>
    <polyline points="1655.75 578 1618 578 1546 578" style="fill: none; stroke: #000; stroke-miterlimit: 10; stroke-width: 5px;"/>
    <polyline points="2266 578 2194 578 2155.25 578 2134.57 578 2112.97 578 2091.87 578 2068.49 578 2043.5 578 2015.85 578 1979.59 578 1905.01 578" style="fill: none; stroke: #000; stroke-miterlimit: 10; stroke-width: 5px;"/>
    <polyline points="1666.44 595 1618 595 1546 595" style="fill: none; stroke: #000; stroke-miterlimit: 10; stroke-width: 5px;"/>
    <polyline points="2266 595 2194 595 2144.56 595 2122.95 595 2100.05 595 2077.38 595 2051.7 595 2023.18 595 1989.05 595 1923.35 595 1887.2 595" style="fill: none; stroke: #000; stroke-miterlimit: 10; stroke-width: 5px;"/>
    <polyline points="1680.5 614 1618 614 1546 614" style="fill: none; stroke: #000; stroke-miterlimit: 10; stroke-width: 5px;"/>
    <polyline points="2266 614 2194 614 2130.5 614 2107.49 614 2082.6 614 2057.35 614 2027.52 614 1991.24 614 1925.59 614 1887.41 614" style="fill: none; stroke: #000; stroke-miterlimit: 10; stroke-width: 5px;"/>
    <polyline points="1696.27 632 1618 632 1546 632" style="fill: none; stroke: #000; stroke-miterlimit: 10; stroke-width: 5px;"/>
    <polyline points="2266 632 2194 632 2114.74 632 2089.86 632 2062.21 632 2032.99 632 1995.33 632 1926.49 632 1886.51 632" style="fill: none; stroke: #000; stroke-miterlimit: 10; stroke-width: 5px;"/>
    <polyline points="1737.7 668 1618 668 1546 668" style="fill: none; stroke: #000; stroke-miterlimit: 10; stroke-width: 5px;"/>
    <polyline points="2266 668 2194 668 2073.3 668 2041.31 668 2000.31 668 1929.21 668 1883.79 668" style="fill: none; stroke: #000; stroke-miterlimit: 10; stroke-width: 5px;"/>
    <polyline points="1764.47 685 1618 685 1546 685" style="fill: none; stroke: #000; stroke-miterlimit: 10; stroke-width: 5px;"/>
    <polyline points="2266 685 2194 685 2046.53 685 2006.41 685 1930.41 685 1882.59 685" style="fill: none; stroke: #000; stroke-miterlimit: 10; stroke-width: 5px;"/>
    <polyline points="1803.03 703 1618 703 1546 703" style="fill: none; stroke: #000; stroke-miterlimit: 10; stroke-width: 5px;"/>
    <polyline points="2266 703 2194 703 2007.97 703 1931.82 703 1881.18 703" style="fill: none; stroke: #000; stroke-miterlimit: 10; stroke-width: 5px;"/>
    <polyline points="1715.01 650 1618 650 1546 650" style="fill: none; stroke: #000; stroke-miterlimit: 10; stroke-width: 5px;"/>
    <polyline points="2266 650 2194 650 2095.99 650 2068.42 650 2036.29 650 1999.22 650 1927.9 650 1885.11 650" style="fill: none; stroke: #000; stroke-miterlimit: 10; stroke-width: 5px;"/>
    <polyline points="2266 722 2194 722 1905.5 722 1618 722 1546 722" style="fill: none; stroke: #000; stroke-miterlimit: 10; stroke-width: 5px;"/>
  </g>
  <g>
    <path d="M4692,722c-10.55,0-20.57-2.27-29.6-6.35" style="fill: none; stroke: #000; stroke-miterlimit: 10; stroke-width: 5px;"/>
    <path d="M4703,703c-3.44,0-6.82-.27-10.11-.8" style="fill: none; stroke: #000; stroke-miterlimit: 10; stroke-width: 5px;"/>
    <line x1="4739" y1="146" x2="4451" y2="146" style="fill: none; stroke: #000; stroke-miterlimit: 10; stroke-width: 5px;"/>
    <polyline points="4739 218 4575.73 218 4555.11 218 4532.01 218 4505.51 218 4451 218" style="fill: none; stroke: #000; stroke-miterlimit: 10; stroke-width: 5px;"/>
    <polyline points="4739 290 4595 290 4576.99 290 4558.48 290 4541.5 290 4523 290 4504.49 290 4485.99 290 4466.99 290 4451.8 290" style="fill: none; stroke: #000; stroke-miterlimit: 10; stroke-width: 5px;"/>
    <polyline points="4739 163 4518.92 163 4451 163" style="fill: none; stroke: #000; stroke-miterlimit: 10; stroke-width: 5px;"/>
    <polyline points="4739 181 4545.09 181 4515.94 181 4450.75 181" style="fill: none; stroke: #000; stroke-miterlimit: 10; stroke-width: 5px;"/>
    <polyline points="4739 200 4563.41 200 4540.2 200 4511.85 200 4451.5 200" style="fill: none; stroke: #000; stroke-miterlimit: 10; stroke-width: 5px;"/>
    <polyline points="4739 236 4584.53 236 4565.35 236 4544.72 236 4523.51 236 4498.61 236 4451 236" style="fill: none; stroke: #000; stroke-miterlimit: 10; stroke-width: 5px;"/>
    <polyline points="4739 254 4590.46 254 4572.08 254 4552.77 254 4534.01 254 4513.37 254 4491.02 254 4450.5 254" style="fill: none; stroke: #000; stroke-miterlimit: 10; stroke-width: 5px;"/>
    <polyline points="4739 272 4593.88 272 4575.86 272 4557.2 272 4539.7 272 4520.73 272 4501.57 272 4481.4 272 4449.5 272" style="fill: none; stroke: #000; stroke-miterlimit: 10; stroke-width: 5px;"/>
    <polyline points="4619.34 578 4600.07 578 4582.01 578 4565.5 578 4548 578 4530.01 578 4511.51 578 4494.5 578 4476 578 4307 578" style="fill: none; stroke: #000; stroke-miterlimit: 10; stroke-width: 5px;"/>
    <polyline points="4811 578 4781.97 578 4781.22 578 4779.01 578 4772 578 4769.46 578 4764 578" style="fill: none; stroke: #000; stroke-miterlimit: 10; stroke-width: 5px;"/>
    <polyline points="4618.5 595 4586.67 595 4568.24 595 4550.02 595 4531.7 595 4513 595 4495.71 595 4477 595 4307 595" style="fill: none; stroke: #000; stroke-miterlimit: 10; stroke-width: 5px;"/>
    <polyline points="4811 595 4806.23 595 4780.04 595 4776.76 595 4772.44 595 4771.55 595 4764 595 4763 595" style="fill: none; stroke: #000; stroke-miterlimit: 10; stroke-width: 5px;"/>
    <polyline points="4619 614 4579.26 614 4557.63 614 4537.67 614 4518 614 4499.89 614 4480.54 614 4307 614" style="fill: none; stroke: #000; stroke-miterlimit: 10; stroke-width: 5px;"/>
    <polyline points="4811 614 4800.39 614 4773.7 614 4773.41 614 4769.62 614 4768.37 614 4762.26 614 4761.94 614 4759.46 614" style="fill: none; stroke: #000; stroke-miterlimit: 10; stroke-width: 5px;"/>
    <polyline points="4622.27 632 4619.5 632 4572.39 632 4548.25 632 4526.55 632 4506.92 632 4486.47 632 4307 632" style="fill: none; stroke: #000; stroke-miterlimit: 10; stroke-width: 5px;"/>
    <polyline points="4811 632 4794.85 632 4768.49 632 4766.94 632 4766.62 632 4764.99 632 4764.61 632 4761.73 632 4753.53 632" style="fill: none; stroke: #000; stroke-miterlimit: 10; stroke-width: 5px;"/>
    <polyline points="4620.5 668 4561.31 668 4533.06 668 4507.59 668 4307 668" style="fill: none; stroke: #000; stroke-miterlimit: 10; stroke-width: 5px;"/>
    <polyline points="4811 668 4785.55 668 4761.73 668 4760.07 668 4751.75 668 4750.32 668 4739 668 4732.41 668" style="fill: none; stroke: #000; stroke-miterlimit: 10; stroke-width: 5px;"/>
    <polyline points="4619.5 685 4555.2 685 4523.64 685 4307 685" style="fill: none; stroke: #000; stroke-miterlimit: 10; stroke-width: 5px;"/>
    <polyline points="4810.56 685 4776.76 685 4754.93 685 4747.5 685 4739 685 4716.36 685" style="fill: none; stroke: #000; stroke-miterlimit: 10; stroke-width: 5px;"/>
    <polyline points="4620 703 4548.47 703 4307 703" style="fill: none; stroke: #000; stroke-miterlimit: 10; stroke-width: 5px;"/>
    <polyline points="4811 703 4803.25 703 4740.72 703 4739 703 4703 703" style="fill: none; stroke: #000; stroke-miterlimit: 10; stroke-width: 5px;"/>
    <polyline points="4620 650 4566.32 650 4539.9 650 4517.55 650 4495.27 650 4307 650" style="fill: none; stroke: #000; stroke-miterlimit: 10; stroke-width: 5px;"/>
    <polyline points="4811 650 4791.09 650 4766.05 650 4764 650 4761.56 650 4759.47 650 4759.07 650 4744.73 650" style="fill: none; stroke: #000; stroke-miterlimit: 10; stroke-width: 5px;"/>
    <line x1="4620" y1="722" x2="4307" y2="722" style="fill: none; stroke: #000; stroke-miterlimit: 10; stroke-width: 5px;"/>
    <polyline points="4811 722 4739 722 4692 722" style="fill: none; stroke: #000; stroke-miterlimit: 10; stroke-width: 5px;"/>
    <polyline points="4307 278.64 4307 290 4307 300.41" style="fill: none; stroke: #000; stroke-miterlimit: 10; stroke-width: 5px;"/>
    <polyline points="4360.98 402.4 4379.83 415.2 4407.48 434 4500.69 497.35 4513.41 506 4515.76 507.6 4529.66 517.04 4545.06 527.51 4560.24 537.83 4574.79 547.72 4588.05 556.73 4602.78 566.74 4619.34 578" style="fill: none; stroke: #000; stroke-miterlimit: 10; stroke-width: 5px;"/>
    <polyline points="4404.2 344.71 4417.44 353.71 4429.64 362 4455.95 379.89 4476 393.52 4495.65 406.87 4514.15 419.44 4535.57 434 4556.93 448.52 4574.54 460.49 4592.19 472.49 4613.89 487.24 4641.5 506 4654.16 514.6 4666.26 522.83" style="fill: none; stroke: #000; stroke-miterlimit: 10; stroke-width: 5px;"/>
    <polyline points="4396.52 361.26 4397.61 362 4405.56 367.4 4448.32 396.46 4472.81 413.12 4493.96 427.49 4503.54 434 4539.61 458.52 4555.9 469.58 4571.54 480.22 4589.52 492.44 4609.47 506 4610.41 506.64 4647.16 531.61 4652.35 535.15" style="fill: none; stroke: #000; stroke-miterlimit: 10; stroke-width: 5px;"/>
    <polyline points="4397.13 382.22 4445.15 414.87 4471.22 432.59 4473.3 434 4525.42 469.43 4540.98 480 4555.6 489.94 4572 501.08 4579.23 506 4589.32 512.85 4607.64 525.31 4633.78 543.08 4645.06 550.75" style="fill: none; stroke: #000; stroke-miterlimit: 10; stroke-width: 5px;"/>
    <line x1="4383.74" y1="373.13" x2="4397.12" y2="382.22" style="fill: none; stroke: #000; stroke-miterlimit: 10; stroke-width: 5px;"/>
    <polyline points="4370.17 385.66 4391.02 399.83 4440.76 433.64 4441.29 434 4512.39 482.33 4527.55 492.63 4541.61 502.19 4547.21 506 4557.23 512.81 4572.95 523.5 4588.29 533.92 4602.76 543.75 4626.15 559.65 4631.3 563.16" style="fill: none; stroke: #000; stroke-miterlimit: 10; stroke-width: 5px;"/>
    <polyline points="4451.8 290 4464.44 298.6 4480.04 309.2 4495.27 319.55 4510.8 330.1 4526.03 340.46 4539.61 349.69 4555 360.15 4557.72 362 4570.35 370.58 4663.65 434 4692.05 453.3 4709.22 464.97" style="fill: none; stroke: #000; stroke-miterlimit: 10; stroke-width: 5px;"/>
    <polyline points="4436.93 301.66 4442.86 305.69 4466.02 321.43 4482.58 332.69 4498.88 343.76 4514.43 354.34 4525.71 362 4528.17 363.68 4543.77 374.27 4559.33 384.86 4631.64 434 4632.42 434.53 4683.26 469.09 4697.32 478.65" style="fill: none; stroke: #000; stroke-miterlimit: 10; stroke-width: 5px;"/>
    <polyline points="4424.75 313.93 4437.3 322.47 4464.85 341.19 4483.83 354.09 4495.46 362 4500.56 365.46 4514.98 375.27 4531.13 386.24 4547.19 397.16 4601.39 434 4602.88 435.01 4628.26 452.27 4679.92 487.38" style="fill: none; stroke: #000; stroke-miterlimit: 10; stroke-width: 5px;"/>
    <polyline points="4462.5 361.5 4481.22 374.21 4497.3 385.14 4514.69 396.94 4531.7 408.5 4568.88 433.75 4577.92 439.89 4598.19 453.64 4620.64 468.88 4662.53 497.34 4675.27 505.99 4679.36 508.76" style="fill: none; stroke: #000; stroke-miterlimit: 10; stroke-width: 5px;"/>
    <polyline points="4415.03 329.1 4427.49 337.57 4462.17 361.14" style="fill: none; stroke: #000; stroke-miterlimit: 10; stroke-width: 5px;"/>
    <path d="M4709.22,464.97c11.47,9.06,21.53,19.83,29.78,31.93,2.02,2.96,3.93,5.99,5.73,9.1,1.45,2.51,2.83,5.07,4.13,7.68,4.38,8.74,7.89,17.99,10.42,27.64,1.52,5.77,2.69,11.69,3.48,17.72.19,1.43.36,2.87.51,4.31.08.86.16,1.73.23,2.6.19,2.22.32,4.46.4,6.71.07,1.77.1,3.55.1,5.34,0,1.37-.02,2.74-.06,4.1-.06,2.3-.18,4.6-.35,6.88-.15,2.01-.35,4.01-.58,6" style="fill: none; stroke: #000; stroke-miterlimit: 10; stroke-width: 5px;"/>
    <path d="M4738.89,659.26c-1.71,2.51-3.51,4.96-5.39,7.35-.35.47-.72.93-1.09,1.39-4.79,5.98-10.04,11.56-15.71,16.7-.11.1-.23.2-.34.3-7.2,6.49-15.06,12.27-23.47,17.2-.45.28-.9.54-1.36.8-9.13,5.24-18.88,9.5-29.13,12.65-13.4,4.13-27.64,6.35-42.4,6.35" style="fill: none; stroke: #000; stroke-miterlimit: 10; stroke-width: 5px;"/>
    <path d="M4763,595.03c-.55,4.66-1.32,9.25-2.3,13.76-.05.23-.1.46-.16.69-.07.34-.15.68-.22,1.02-.24,1.03-.49,2.07-.75,3.09-.04.14-.07.28-.11.41-.55,2.16-1.16,4.29-1.81,6.4-.58,1.89-1.19,3.76-1.85,5.61-.52,1.48-1.07,2.94-1.64,4.4-.2.53-.42,1.06-.63,1.59-1.5,3.7-3.15,7.33-4.95,10.87-.85,1.71-1.75,3.4-2.67,5.06-.39.7-.78,1.39-1.18,2.07-1.8,3.11-3.71,6.14-5.73,9.1" style="fill: none; stroke: #000; stroke-miterlimit: 10; stroke-width: 5px;"/>
    <path d="M4697.32,478.65c9.92,7.76,18.63,16.98,25.83,27.35,3.89,5.6,7.34,11.53,10.29,17.75,2.12,4.46,3.98,9.06,5.56,13.8,1.58,4.68,2.88,9.48,3.9,14.4.82,3.97,1.45,8.02,1.89,12.13.07.64.13,1.28.19,1.93.12,1.28.21,2.57.29,3.86.14,2.26.21,4.53.22,6.82.01.27.01.54.01.81v.63c-.02,3.67-.2,7.31-.53,10.9-.04.51-.09,1.02-.14,1.52-.15,1.49-.33,2.98-.54,4.45-.11.8-.23,1.6-.36,2.39-.12.78-.25,1.56-.39,2.34-.63,3.49-1.4,6.93-2.3,10.32-.36,1.32-.73,2.64-1.13,3.95-.11.37-.23.74-.34,1.11-.25.79-.5,1.57-.77,2.34-1.48,4.44-3.21,8.76-5.16,12.96-.26.53-.51,1.06-.76,1.59-.04.08-.08.17-.13.25-2.78,5.74-5.99,11.24-9.59,16.45-.03.05-.06.09-.1.13-.26.39-.54.78-.81,1.17-4.09,5.77-8.66,11.18-13.64,16.17-.62.62-1.24,1.23-1.87,1.83-4.99,4.8-10.38,9.19-16.11,13.11-1.97,1.35-3.98,2.65-6.03,3.89-5.09,3.07-10.42,5.8-15.95,8.14-8.7,3.68-17.91,6.41-27.48,8.05-6.95,1.19-14.09,1.81-21.37,1.81" style="fill: none; stroke: #000; stroke-miterlimit: 10; stroke-width: 5px;"/>
    <path d="M4679.88,487.44c7.79,5.26,14.85,11.51,21.01,18.56,7.72,8.85,14.03,18.97,18.55,30.01,3.61,8.78,6.1,18.15,7.27,27.91.19,1.49.33,2.98.45,4.49.06.7.11,1.41.14,2.12.04.59.07,1.19.09,1.78.08,1.56.11,3.12.11,4.69,0,.33,0,.67-.01,1,0,.52-.01,1.04-.03,1.56.01.09.01.18,0,.28-.05,2.06-.16,4.1-.33,6.13-.03.38-.06.75-.1,1.12-.24,2.67-.59,5.31-1.03,7.91-.53,3.18-1.2,6.31-2.01,9.39-.85,3.27-1.85,6.47-2.99,9.61-.75,2.05-1.56,4.06-2.43,6.04-.26.63-.54,1.25-.83,1.87-1.58,3.47-3.35,6.83-5.29,10.09-1.3,2.21-2.68,4.37-4.14,6.47-.49.7-.98,1.4-1.49,2.09-2.4,3.29-4.98,6.45-7.72,9.44-2.33,2.54-4.78,4.96-7.34,7.27-4.38,3.94-9.09,7.53-14.07,10.73-1.23.79-2.48,1.55-3.74,2.28-6.43,3.77-13.29,6.89-20.48,9.26-7.85,2.61-16.1,4.33-24.63,5.06-3.08.27-6.19.4-9.34.4" style="fill: none; stroke: #000; stroke-miterlimit: 10; stroke-width: 5px;"/>
    <path d="M4679.36,508.76c12.73,10.91,22.4,25.29,27.52,41.68,2.28,7.26,3.66,14.93,4.02,22.85.02.38.04.76.04,1.14.02.19.02.37.02.55.01.17.01.34.01.51.02.5.03,1.01.02,1.51.01.17.01.33.01.5s0,.33-.01.5c0,.84-.01,1.68-.05,2.52-.15,4.75-.67,9.42-1.54,13.96-.02.18-.06.35-.1.52-1.18,6.09-2.99,11.95-5.34,17.54-.2.49-.41.98-.63,1.46-2.01,4.58-4.4,8.95-7.13,13.09-.46.73-.95,1.45-1.46,2.16-.64.93-1.3,1.85-1.99,2.75-3.52,4.66-7.48,8.97-11.82,12.86-2,1.8-4.09,3.52-6.25,5.14-3.48,2.6-7.15,4.96-10.99,7.05-6.04,3.29-12.5,5.9-19.27,7.75-7.08,1.94-14.5,3.04-22.15,3.18-.59.01-1.18.02-1.77.02" style="fill: none; stroke: #000; stroke-miterlimit: 10; stroke-width: 5px;"/>
    <path d="M4666.26,522.83c11.49,9.64,19.92,22.8,23.63,37.83,1.22,4.92,1.93,10.03,2.08,15.29.02.68.03,1.36.03,2.05,0,.82-.01,1.64-.04,2.46-.02.7-.06,1.4-.11,2.09" style="fill: none; stroke: #000; stroke-miterlimit: 10; stroke-width: 5px;"/>
    <path d="M4691.85,582.65c-.27,4.23-.9,8.36-1.87,12.35-.55,2.28-1.21,4.52-1.98,6.7-1.49,4.3-3.39,8.41-5.63,12.3-.95,1.64-1.96,3.23-3.03,4.78-1.56,2.27-3.24,4.43-5.05,6.5-2.07,2.39-4.3,4.63-6.68,6.72-3.09,2.74-6.42,5.21-9.96,7.38-5.58,3.43-11.67,6.12-18.12,7.94-6.21,1.75-12.76,2.68-19.53,2.68" style="fill: none; stroke: #000; stroke-miterlimit: 10; stroke-width: 5px;"/>
    <path d="M4652.35,535.15c10.76,8.25,18.33,20.48,20.51,34.49.42,2.72.64,5.52.64,8.36,0,.81-.02,1.62-.06,2.42-.02.62-.06,1.25-.11,1.86-.23,2.91-.68,5.76-1.36,8.52-.34,1.42-.74,2.82-1.2,4.19" style="fill: none; stroke: #000; stroke-miterlimit: 10; stroke-width: 5px;"/>
    <path d="M4659.73,614.01c-5.41,6.05-12.16,10.86-19.78,13.99-5.49,2.24-11.44,3.61-17.66,3.93" style="fill: none; stroke: #000; stroke-miterlimit: 10; stroke-width: 5px;"/>
    <path d="M4670.76,595c-1.58,4.81-3.84,9.32-6.65,13.43-1.33,1.95-2.79,3.82-4.37,5.57" style="fill: none; stroke: #000; stroke-miterlimit: 10; stroke-width: 5px;"/>
    <path d="M4631.3,563.16c3.52,3.35,5.7,8.09,5.7,13.34,0,.51-.02,1.01-.07,1.5-.28,3.55-1.56,6.82-3.58,9.52-3.36,4.54-8.76,7.48-14.85,7.48" style="fill: none; stroke: #000; stroke-miterlimit: 10; stroke-width: 5px;"/>
    <path d="M4645.06,550.75c6.76,6.69,10.94,15.99,10.94,26.25,0,.33,0,.66-.01,1-.02.62-.05,1.25-.1,1.87-.24,3.09-.85,6.07-1.8,8.91-.73,2.17-1.66,4.25-2.76,6.22-.64,1.15-1.34,2.25-2.1,3.32-4.48,6.36-10.93,11.24-18.45,13.77-3.7,1.24-7.66,1.91-11.78,1.91" style="fill: none; stroke: #000; stroke-miterlimit: 10; stroke-width: 5px;"/>
    <path d="M4307.42,278.93c.54-7.1,1.6-14.06,3.13-20.84,1.4-6.2,3.21-12.25,5.38-18.12,2.01-5.43,4.35-10.71,6.98-15.81,1.07-2.09,2.19-4.14,3.36-6.16,1.84-3.19,3.8-6.3,5.88-9.32,7.39-10.79,16.22-20.52,26.21-28.92,7.61-6.4,15.89-12.03,24.72-16.76,20.23-10.85,43.36-17,67.92-17" style="fill: none; stroke: #000; stroke-miterlimit: 10; stroke-width: 5px;"/>
    <path d="M4360.98,402.4c-13.93-11.17-25.73-24.86-34.71-40.4-1.82-3.14-3.52-6.36-5.11-9.65-4.37-9.08-7.81-18.69-10.2-28.7-1.79-7.45-2.99-15.12-3.57-22.97-.26-3.53-.39-7.09-.39-10.68" style="fill: none; stroke: #000; stroke-miterlimit: 10; stroke-width: 5px;"/>
    <path d="M4346.89,218c4.41-6.46,9.41-12.48,14.91-18,7.26-7.27,15.41-13.67,24.26-19,18.96-11.43,41.18-18,64.94-18" style="fill: none; stroke: #000; stroke-miterlimit: 10; stroke-width: 5px;"/>
    <path d="M4325.01,290c-.01-.33-.01-.67-.01-1,0-6.81.54-13.5,1.58-20.02,1.02-6.42,2.53-12.67,4.48-18.72,1.8-5.56,3.97-10.96,6.49-16.15,2.64-5.44,5.65-10.66,9.02-15.63" style="fill: none; stroke: #000; stroke-miterlimit: 10; stroke-width: 5px;"/>
    <path d="M4370.17,385.66c-8.26-6.92-15.63-14.87-21.89-23.66-4.73-6.65-8.83-13.77-12.21-21.28-3.76-8.34-6.64-17.15-8.51-26.33-1.56-7.61-2.43-15.46-2.55-23.5" style="fill: none; stroke: #000; stroke-miterlimit: 10; stroke-width: 5px;"/>
    <path d="M4383.74,373.13c-4.28-3.4-8.3-7.12-12.01-11.13-8.47-9.13-15.37-19.73-20.29-31.38-3.56-8.44-6.08-17.42-7.38-26.79-.65-4.52-1-9.14-1.04-13.83-.02-.41-.02-.83-.02-1.25,0-2.82.11-5.62.32-8.39.52-6.69,1.64-13.21,3.33-19.51,1.52-5.71,3.51-11.24,5.91-16.53,2.5-5.53,5.46-10.8,8.82-15.78,2.49-3.68,5.2-7.21,8.11-10.54,5.93-6.82,12.7-12.87,20.16-18,17.36-11.99,38.42-19,61.1-19" style="fill: none; stroke: #000; stroke-miterlimit: 10; stroke-width: 5px;"/>
    <path d="M4363.3,272c1.19-5.85,2.94-11.49,5.19-16.86.17-.38.33-.76.5-1.14,2.26-5.19,5-10.11,8.17-14.73.74-1.11,1.53-2.2,2.33-3.27,5.12-6.82,11.18-12.88,18-18,15.04-11.3,33.74-18,54.01-18" style="fill: none; stroke: #000; stroke-miterlimit: 10; stroke-width: 5px;"/>
    <path d="M4396.52,361.26c-13.88-10.72-24.53-25.4-30.27-42.35-2.8-8.25-4.43-17.03-4.7-26.16-.04-.91-.05-1.83-.05-2.75,0-6.11.61-12.08,1.77-17.85" style="fill: none; stroke: #000; stroke-miterlimit: 10; stroke-width: 5px;"/>
    <path d="M4404.2,344.71c-11.6-9.93-20.01-23.49-23.46-38.92-1.14-5.08-1.74-10.37-1.74-15.79,0-2.34.11-4.66.33-6.94.36-3.78,1.02-7.48,1.94-11.06.59-2.3,1.29-4.55,2.1-6.75,1.43-3.92,3.2-7.68,5.26-11.25.96-1.66,1.99-3.27,3.08-4.84,3.34-4.86,7.27-9.28,11.68-13.16,12.69-11.21,29.36-18,47.61-18" style="fill: none; stroke: #000; stroke-miterlimit: 10; stroke-width: 5px;"/>
    <path d="M4415.03,329.1c-9.34-8.49-15.67-20.23-17.17-33.44-.22-1.86-.34-3.75-.35-5.66-.01-.17-.01-.33-.01-.5,0-4.66.6-9.18,1.71-13.48.36-1.37.76-2.71,1.22-4.02,1.56-4.51,3.7-8.74,6.34-12.6,1.29-1.9,2.69-3.7,4.21-5.4,9.8-11.04,24.1-18,40.02-18" style="fill: none; stroke: #000; stroke-miterlimit: 10; stroke-width: 5px;"/>
    <path d="M4436.93,301.66c-2.95-3.04-4.8-7.13-4.92-11.66-.01-.17-.01-.33-.01-.5,0-3.96,1.32-7.61,3.54-10.55,3.2-4.22,8.26-6.95,13.96-6.95" style="fill: none; stroke: #000; stroke-miterlimit: 10; stroke-width: 5px;"/>
    <path d="M4424.75,313.93c-5.94-6.25-9.62-14.66-9.74-23.93-.01-.17-.01-.33-.01-.5,0-.9.03-1.8.1-2.68.4-5.36,1.99-10.39,4.5-14.82.54-.93,1.11-1.84,1.72-2.72,6.41-9.24,17.09-15.28,29.18-15.28" style="fill: none; stroke: #000; stroke-miterlimit: 10; stroke-width: 5px;"/>
  </g>
  <g>
    <path d="M1010,722c18.79,0,35.9-7.2,48.72-19,5.64-5.18,10.45-11.26,14.21-18,.99-1.77,1.9-3.58,2.74-5.44" style="fill: none; stroke: #000; stroke-miterlimit: 10; stroke-width: 5px;"/>
    <path d="M1000,703c3.4,0,6.74-.27,10-.78,13.31-2.08,25.25-8.27,34.5-17.22,5.07-4.91,9.34-10.65,12.57-17" style="fill: none; stroke: #000; stroke-miterlimit: 10; stroke-width: 5px;"/>
    <path d="M992,685c6.31,0,12.37-1.08,18-3.08,8.2-2.89,15.49-7.71,21.32-13.92,3.79-4.02,6.97-8.62,9.39-13.65" style="fill: none; stroke: #000; stroke-miterlimit: 10; stroke-width: 5px;"/>
    <path d="M980,668c11.36,0,21.79-3.94,30-10.53,2.76-2.21,5.26-4.71,7.47-7.47,2.64-3.28,4.85-6.92,6.55-10.83" style="fill: none; stroke: #000; stroke-miterlimit: 10; stroke-width: 5px;"/>
    <path d="M969,650c14.12,0,26.57-7.14,33.94-18,2.09-3.07,3.77-6.43,4.97-10.02" style="fill: none; stroke: #000; stroke-miterlimit: 10; stroke-width: 5px;"/>
    <path d="M959,632c12.83,0,23.95-7.32,29.41-18,1.92-3.76,3.13-7.93,3.48-12.35" style="fill: none; stroke: #000; stroke-miterlimit: 10; stroke-width: 5px;"/>
    <path d="M947,614c11.93,0,21.99-8.04,25.04-19" style="fill: none; stroke: #000; stroke-miterlimit: 10; stroke-width: 5px;"/>
    <path d="M939.04,594.97c8.97-.51,16.19-7.59,16.9-16.51" style="fill: none; stroke: #000; stroke-miterlimit: 10; stroke-width: 5px;"/>
    <path d="M930,578c2.21,0,4.21-.9,5.66-2.34,1.44-1.45,2.34-3.45,2.34-5.66" style="fill: none; stroke: #000; stroke-miterlimit: 10; stroke-width: 5px;"/>
    <path d="M1207.2,595c-18.9-2.1-36.83-7.44-53.2-15.47-1.02-.5-2.03-1.01-3.03-1.53-29.33-15.15-53.45-39-68.97-68.13-.68-1.28-1.35-2.57-1.99-3.87-2.9-5.81-5.46-11.81-7.66-18-2.08-5.85-3.83-11.86-5.24-18-1.35-5.88-2.38-11.89-3.07-18-.67-5.91-1.02-11.91-1.04-18v-.5c0-5.91.32-11.75.93-17.5.69-6.45,1.76-12.8,3.18-19,1.41-6.14,3.16-12.15,5.24-18,2.07-5.83,4.46-11.5,7.17-17,.79-1.64,1.62-3.26,2.48-4.87,15.18-28.5,38.59-51.93,67.06-67.13,1.63-.87,3.27-1.71,4.94-2.53,21.51-10.55,45.7-16.47,71.28-16.47h.72c25.88.11,50.33,6.29,72,17.19,1.18.59,2.34,1.2,3.5,1.81,29.38,15.69,53.38,40.15,68.5,69.9.36.69.71,1.4,1.04,2.1,2.71,5.5,5.1,11.17,7.17,17" style="fill: none; stroke: #000; stroke-miterlimit: 10; stroke-width: 5px;"/>
    <path d="M1207.41,614c-18.82-1.98-36.77-6.87-53.41-14.2-3.41-1.49-6.76-3.1-10.05-4.8-9.45-4.88-18.41-10.57-26.8-17-13.29-10.15-25.13-22.12-35.15-35.53-8.4-11.22-15.52-23.45-21.15-36.47-2.53-5.85-4.77-11.85-6.68-18-1.83-5.88-3.37-11.88-4.6-18-1.19-5.9-2.09-11.91-2.69-18-.58-5.92-.88-11.93-.88-18s.3-12.08.88-18c.63-6.44,1.61-12.78,2.9-19,1.26-6.12,2.84-12.13,4.71-18,1.84-5.8,3.96-11.47,6.36-17,5.63-13.02,12.75-25.25,21.15-36.47,10.02-13.41,21.86-25.38,35.15-35.53,11.31-8.66,23.67-16,36.85-21.8,22.05-9.71,46.4-15.13,72-15.2h.5c25.4,0,49.57,5.26,71.5,14.76,13.56,5.87,26.26,13.36,37.85,22.24,12.85,9.81,24.34,21.32,34.15,34.2,8.83,11.58,16.29,24.26,22.15,37.8,2.4,5.53,4.52,11.2,6.36,17,1.87,5.87,3.45,11.88,4.71,18" style="fill: none; stroke: #000; stroke-miterlimit: 10; stroke-width: 5px;"/>
    <path d="M1206.51,632c-18.35-1.84-35.97-6.18-52.51-12.7-4.15-1.63-8.23-3.4-12.24-5.3-11.27-5.34-21.96-11.71-31.94-19-7.15-5.21-13.94-10.9-20.32-17-2.57-2.45-5.07-4.98-7.5-7.57-17.38-18.49-31.27-40.32-40.61-64.43-2.27-5.87-4.28-11.88-5.99-18-1.66-5.9-3.05-11.9-4.16-18-1.08-5.91-1.89-11.92-2.43-18-.54-5.93-.81-11.93-.81-18s.27-12.07.81-18c.57-6.43,1.45-12.76,2.62-19,1.14-6.1,2.56-12.11,4.25-18,1.65-5.78,3.56-11.45,5.71-17,9.34-24.11,23.23-45.94,40.61-64.43,2.43-2.59,4.93-5.12,7.5-7.57,18.47-17.66,40.33-31.79,64.5-41.3,22.31-8.79,46.59-13.64,72-13.7h.5c25.21,0,49.32,4.71,71.5,13.31,24.57,9.51,46.78,23.78,65.5,41.69,2.22,2.12,4.38,4.29,6.5,6.51,17.85,18.71,32.09,40.92,41.61,65.49,2.15,5.55,4.06,11.22,5.71,17,1.69,5.89,3.11,11.9,4.25,18,1.17,6.24,2.05,12.57,2.62,19" style="fill: none; stroke: #000; stroke-miterlimit: 10; stroke-width: 5px;"/>
    <path d="M1205.11,650c-17.76-1.74-34.88-5.64-51.11-11.42-5.55-1.98-11-4.17-16.33-6.58-11.27-5.09-22.04-11.12-32.19-18-8.25-5.58-16.09-11.72-23.48-18.37-.24-.21-.47-.42-.7-.63-5.9-5.36-11.51-11.03-16.79-17-18.43-20.81-32.92-45.2-42.32-72-2.06-5.89-3.88-11.89-5.43-18-1.52-5.91-2.78-11.91-3.8-18-.98-5.92-1.73-11.92-2.22-18-.49-5.93-.74-11.94-.74-18s.25-12.07.74-18c.52-6.42,1.32-12.75,2.4-19,1.04-6.09,2.33-12.09,3.88-18,1.49-5.76,3.22-11.43,5.17-17,9.4-26.8,23.89-51.19,42.32-72,5.49-6.21,11.33-12.09,17.49-17.63,20.77-18.68,45.17-33.39,72-42.95,16.23-5.78,33.35-9.68,51.11-11.42,6.87-.68,13.84-1.03,20.89-1.05h.5c7.22,0,14.36.35,21.4,1.05,17.39,1.71,34.17,5.48,50.1,11.07,26.8,9.39,51.19,23.92,72,42.4,6.53,5.8,12.7,11.99,18.49,18.53,18.43,20.81,32.92,45.2,42.32,72,1.95,5.57,3.68,11.24,5.17,17,1.55,5.91,2.84,11.91,3.88,18,.91,5.29,1.63,10.65,2.14,16.07.1.97.19,1.95.26,2.93.49,5.93.74,11.94.74,18" style="fill: none; stroke: #000; stroke-miterlimit: 10; stroke-width: 5px;"/>
    <path d="M1203.79,668c-17.21-1.66-33.87-5.18-49.79-10.36-6.89-2.24-13.63-4.79-20.22-7.64-11.79-5.09-23.07-11.12-33.77-18-6.21-4-12.22-8.28-18.01-12.83-2.15-1.68-4.26-3.41-6.35-5.17-2.66-2.24-5.27-4.54-7.83-6.9-4.21-3.88-8.28-7.92-12.2-12.1-.79-.84-1.58-1.69-2.34-2.54-4.25-4.65-8.3-9.48-12.15-14.46-12.6-16.27-23.11-34.25-31.13-53.53-2.52-6.03-4.78-12.19-6.79-18.47-1.9-5.9-3.56-11.9-4.99-18-1.39-5.91-2.56-11.92-3.49-18-.91-5.93-1.59-11.93-2.06-18-.44-5.94-.67-11.94-.67-18s.23-12.06.67-18c.49-6.41,1.23-12.75,2.22-19,.96-6.08,2.15-12.09,3.57-18,1.37-5.75,2.96-11.42,4.75-17,2.01-6.28,4.27-12.44,6.79-18.47,8.02-19.28,18.53-37.26,31.13-53.53,11.88-15.35,25.62-29.19,40.87-41.17,15.76-12.38,33.15-22.78,51.78-30.83,6.59-2.85,13.33-5.4,20.22-7.64,22.68-7.38,46.87-11.4,72-11.45h.5c24.93,0,48.96,3.9,71.5,11.13,7.23,2.31,14.31,4.98,21.22,7.96,18.24,7.88,35.29,18.01,50.78,30.05,15.66,12.16,29.73,26.27,41.87,41.95,12.08,15.6,22.24,32.78,30.13,51.16,2.92,6.79,5.52,13.74,7.79,20.84,1.79,5.58,3.38,11.25,4.75,17,1.42,5.91,2.61,11.92,3.57,18,.99,6.25,1.73,12.59,2.22,19,.44,5.94.67,11.94.67,18s-.23,12.06-.67,18" style="fill: none; stroke: #000; stroke-miterlimit: 10; stroke-width: 5px;"/>
    <path d="M1202.59,685c-16.73-1.58-32.98-4.8-48.59-9.51-7.25-2.18-14.36-4.68-21.31-7.49-12.53-5.05-24.55-11.08-35.98-18-5.02-3.04-9.93-6.25-14.71-9.62-.24-.16-.48-.33-.71-.5-3.57-2.53-7.07-5.16-10.5-7.88-2.82-2.22-5.58-4.51-8.3-6.85-4.15-3.59-8.19-7.3-12.09-11.15-6.14-6.02-11.96-12.37-17.45-19-4.34-5.23-8.47-10.64-12.37-16.22-.13-.17-.25-.35-.37-.52-.06-.09-.12-.17-.18-.26-3.53-5.07-6.88-10.28-10.03-15.62-10.37-17.54-18.68-36.44-24.59-56.38-1.76-5.91-3.3-11.91-4.62-18-1.3-5.92-2.38-11.93-3.24-18-.85-5.94-1.49-11.94-1.92-18-.42-5.94-.63-11.95-.63-18s.21-12.06.63-18c.45-6.4,1.14-12.74,2.06-19,.89-6.07,2-12.08,3.32-18,1.27-5.74,2.74-11.41,4.4-17,5.91-19.94,14.22-38.84,24.59-56.38,3.15-5.34,6.5-10.55,10.03-15.62,16.86-24.25,37.85-45.39,61.97-62.38,4.78-3.37,9.69-6.58,14.71-9.62,17.78-10.76,37-19.38,57.29-25.49,22.81-6.88,46.97-10.59,72-10.64h.5c24.84,0,48.84,3.61,71.5,10.33,20.66,6.14,40.22,14.86,58.29,25.8,4.67,2.82,9.25,5.8,13.71,8.92,24.53,17.11,45.88,38.49,62.97,63.08,3.16,4.54,6.17,9.19,9.03,13.95,10.84,18,19.49,37.48,25.59,58.05,1.66,5.59,3.13,11.26,4.4,17,1.32,5.92,2.43,11.93,3.32,18,.92,6.26,1.61,12.6,2.06,19,.42,5.94.63,11.95.63,18s-.21,12.06-.63,18c-.43,6.06-1.07,12.06-1.92,18" style="fill: none; stroke: #000; stroke-miterlimit: 10; stroke-width: 5px;"/>
    <path d="M996.51,574.91c-12.96-21.21-23.08-44.36-29.83-68.91-1.63-5.92-3.07-11.92-4.3-18-1.2-5.93-2.2-11.93-3.01-18-.79-5.94-1.38-11.94-1.77-18-.4-5.95-.6-11.95-.6-18s.2-12.05.6-18c.41-6.4,1.05-12.73,1.9-19,.83-6.07,1.86-12.07,3.09-18,1.18-5.74,2.55-11.41,4.09-17,7.08-25.75,17.86-49.95,31.75-72,3.64-5.8,7.5-11.44,11.57-16.93,15.46-20.87,33.86-39.43,54.58-55.07,5.64-4.26,11.45-8.29,17.42-12.1,22.03-14.06,46.24-24.99,72-32.18,22.91-6.41,47.06-9.85,72-9.9h.5c24.76,0,48.73,3.35,71.5,9.62,25.75,7.08,49.96,17.89,72,31.83,6.32,3.99,12.47,8.24,18.42,12.73,20.27,15.3,38.33,33.4,53.58,53.73,4.43,5.91,8.63,12,12.57,18.27,13.89,22.05,24.67,46.25,31.75,72,1.54,5.59,2.91,11.26,4.09,17,1.23,5.93,2.26,11.93,3.09,18,.85,6.27,1.49,12.6,1.9,19,.4,5.95.6,11.95.6,18s-.2,12.05-.6,18c-.39,6.06-.98,12.06-1.77,18-.81,6.07-1.81,12.07-3.01,18" style="fill: none; stroke: #000; stroke-miterlimit: 10; stroke-width: 5px;"/>
    <path d="M1010,594.93c-3.87-5.22-7.55-10.59-11.04-16.09-.18-.28-.36-.56-.53-.84-.15-.22-.29-.45-.42-.67-.47-.74-.93-1.49-1.39-2.24-.04-.06-.07-.12-.1-.18" style="fill: none; stroke: #000; stroke-miterlimit: 10; stroke-width: 5px;"/>
    <path d="M1201.18,703c-16.19-1.51-31.96-4.46-47.18-8.72-9.35-2.6-18.5-5.71-27.41-9.28-12.09-4.83-23.75-10.53-34.9-17-3.27-1.9-6.51-3.87-9.69-5.9-.31-.19-.61-.39-.92-.58-5.65-3.64-11.15-7.48-16.5-11.52-.45-.34-.91-.69-1.36-1.03-5.98-4.58-11.77-9.4-17.34-14.45-.92-.83-1.84-1.67-2.74-2.52-5.29-4.92-10.38-10.05-15.26-15.38-.79-.87-1.58-1.74-2.37-2.62-5.43-6.09-10.59-12.43-15.46-19" style="fill: none; stroke: #000; stroke-miterlimit: 10; stroke-width: 5px;"/>
    <path d="M1226,146c24.87.04,48.99,3.25,72,9.23,25.56,6.65,49.73,16.73,72,29.73,16.33,9.51,31.63,20.59,45.7,33.04,9.33,8.23,18.11,17.07,26.3,26.45,12.27,14.04,23.19,29.29,32.58,45.55,12.87,22.28,22.84,46.45,29.39,72,1.44,5.6,2.71,11.27,3.82,17,1.14,5.94,2.1,11.94,2.88,18,.8,6.27,1.4,12.61,1.79,19,.36,5.9.54,11.85.54,17.84v.16c0,6.04-.19,12.05-.56,18-.38,6.05-.94,12.06-1.69,18-.76,6.06-1.7,12.06-2.83,18-1.16,6.07-2.5,12.07-4.03,18" style="fill: none; stroke: #000; stroke-miterlimit: 10; stroke-width: 5px;"/>
    <path d="M938,433.84c0-5.99.18-11.94.54-17.84.39-6.39.99-12.73,1.79-19,.78-6.06,1.74-12.06,2.88-18,1.11-5.73,2.38-11.4,3.82-17,6.55-25.55,16.52-49.72,29.39-72,9.64-16.7,20.91-32.33,33.58-46.69,7.9-8.96,16.35-17.41,25.3-25.31,14.36-12.7,30-23.98,46.7-33.63,22.28-12.88,46.46-22.85,72-29.4,22.86-5.86,46.82-8.97,71.5-8.97" style="fill: none; stroke: #000; stroke-miterlimit: 10; stroke-width: 5px;"/>
    <path d="M977.22,579.05c-.21-.35-.42-.7-.62-1.05-1.06-1.83-2.11-3.68-3.13-5.55-.75-1.36-1.49-2.73-2.21-4.1-.06-.1-.11-.2-.16-.3-10.27-19.47-18.37-40.26-23.99-62.05-1.53-5.93-2.87-11.93-4.03-18-1.13-5.94-2.07-11.94-2.83-18-.75-5.94-1.31-11.95-1.69-18-.37-5.95-.56-11.96-.56-18" style="fill: none; stroke: #000; stroke-miterlimit: 10; stroke-width: 5px;"/>
    <path d="M1226,721.69h-.5c-24.68,0-48.64-3.11-71.5-8.97-10.44-2.68-20.66-5.93-30.61-9.72-13.32-5.06-26.16-11.09-38.44-18-.99-.55-1.97-1.11-2.95-1.68-2.13-1.23-4.24-2.48-6.33-3.76-5.94-3.65-11.75-7.5-17.4-11.56-.29-.2-.59-.42-.88-.64-5.72-4.12-11.29-8.47-16.68-13.01-1.71-1.43-3.39-2.88-5.06-4.35-3.98-3.5-7.85-7.11-11.63-10.83-2.39-2.34-4.74-4.73-7.04-7.17-2.37-2.5-4.7-5.04-6.98-7.62-.7-.79-1.4-1.6-2.09-2.4-2.27-2.62-4.48-5.28-6.65-7.98-3.23-4.03-6.36-8.15-9.37-12.35-1.58-2.19-3.12-4.41-4.64-6.65-2.36-3.5-4.65-7.05-6.86-10.65-1.06-1.72-2.1-3.45-3.11-5.2" style="fill: none; stroke: #000; stroke-miterlimit: 10; stroke-width: 5px;"/>
    <path d="M1226,290c26.26.09,50.86,7.26,72,19.71,21.45,12.62,39.34,30.68,51.8,52.29" style="fill: none; stroke: #000; stroke-miterlimit: 10; stroke-width: 5px;"/>
    <path d="M1225.5,578c-26.03,0-50.45-6.96-71.5-19.12-21.89-12.65-40.15-30.93-52.8-52.88-3.32-5.76-6.26-11.77-8.76-18-2.36-5.82-4.34-11.83-5.91-18-1.51-5.86-2.66-11.87-3.42-18-.73-5.9-1.11-11.9-1.11-18s.38-12.1,1.11-18c.81-6.48,2.04-12.82,3.68-19,1.62-6.17,3.65-12.18,6.06-18,2.41-5.87,5.21-11.55,8.35-17,12.65-21.95,30.91-40.23,52.8-52.88,21.05-12.16,45.47-19.12,71.5-19.12" style="fill: none; stroke: #000; stroke-miterlimit: 10; stroke-width: 5px;"/>
    <polyline points="1349.8 362 1298 362 1226 362 1154 362 1101.2 362" style="fill: none; stroke: #000; stroke-miterlimit: 10; stroke-width: 5px;"/>
    <polyline points="1378.21 379 1370 379 1358.15 379 1298 379 1226 379 1154 379 1092.85 379" style="fill: none; stroke: #000; stroke-miterlimit: 10; stroke-width: 5px;"/>
    <polyline points="1403.22 397 1383.45 397 1370 397 1364.21 397 1298 397 1226 397 1154 397 1086.79 397" style="fill: none; stroke: #000; stroke-miterlimit: 10; stroke-width: 5px;"/>
    <polyline points="1424.19 416 1406.12 416 1386.63 416 1370 416 1367.89 416 1298 416 1226 416 1154 416 1083.11 416" style="fill: none; stroke: #000; stroke-miterlimit: 10; stroke-width: 5px;"/>
    <polyline points="1442 452 1424.19 452 1406.12 452 1386.52 452 1370 452 1367.89 452 1298 452 1226 452 1154 452 1083.11 452" style="fill: none; stroke: #000; stroke-miterlimit: 10; stroke-width: 5px;"/>
    <line x1="1460.33" y1="452" x2="1442.26" y2="452" style="fill: none; stroke: #000; stroke-miterlimit: 10; stroke-width: 5px;"/>
    <polyline points="1475.45 470 1458.27 470 1442 470 1440.04 470 1421.76 470 1403.43 470 1383.45 470 1370 470 1364.47 470 1298 470 1226 470 1154 470 1086.53 470" style="fill: none; stroke: #000; stroke-miterlimit: 10; stroke-width: 5px;"/>
    <polyline points="1490.62 488 1472.21 488 1454.78 488 1442 488 1436.24 488 1417.6 488 1398.83 488 1378.21 488 1370 488 1358.56 488 1298 488 1226 488 1154 488 1092.44 488" style="fill: none; stroke: #000; stroke-miterlimit: 10; stroke-width: 5px;"/>
    <polyline points="1443 434 1442 434 1425 434 1407 434 1387.56 434 1370 434 1369 434 1298 434 1226 434 1154 434 1082 434" style="fill: none; stroke: #000; stroke-miterlimit: 10; stroke-width: 5px;"/>
    <polyline points="1503.89 506 1486.32 506 1467.59 506 1449.79 506 1442 506 1430.81 506 1411.61 506 1392.15 506 1370.55 506 1370 506 1349.8 506 1298 506 1226 506 1154 506 1101.2 506" style="fill: none; stroke: #000; stroke-miterlimit: 10; stroke-width: 5px;"/>
    <polyline points="930 578 923.99 578 920.03 578 866 578" style="fill: none; stroke: #000; stroke-miterlimit: 10; stroke-width: 5px;"/>
    <polyline points="1546.5 578 1481.89 578 1446.36 578 1428.56 578 1417.28 578 1409.18 578 1390.24 578 1369.26 578 1352.67 578 1346.84 578 1322.03 578 1289.49 578 1288.06 578 1223.45 578" style="fill: none; stroke: #000; stroke-miterlimit: 10; stroke-width: 5px;"/>
    <polyline points="939.02 595 938 595 930.45 595 926.24 595 922.96 595 866 595" style="fill: none; stroke: #000; stroke-miterlimit: 10; stroke-width: 5px;"/>
    <polyline points="1546.5 595 1481.89 595 1436.8 595 1418.13 595 1417.28 595 1397.58 595 1377.24 595 1354.2 595 1352.67 595 1328.6 595 1297.98 595 1288.06 595 1239.02 595 1223.45 595 1206.58 595" style="fill: none; stroke: #000; stroke-miterlimit: 10; stroke-width: 5px;"/>
    <polyline points="947.63 614 941.06 614 940.74 614 938 614 932.38 614 929.6 614 928.3 614 866 614" style="fill: none; stroke: #000; stroke-miterlimit: 10; stroke-width: 5px;"/>
    <polyline points="1546.5 614 1481.89 614 1424.23 614 1417.28 614 1404.26 614 1381.93 614 1359.27 614 1352.67 614 1332.5 614 1299.94 614 1288.06 614 1241.03 614 1223.45 614 1206.77 614" style="fill: none; stroke: #000; stroke-miterlimit: 10; stroke-width: 5px;"/>
    <polyline points="938 632 936.38 632 935.06 632 933.51 632 866 632" style="fill: none; stroke: #000; stroke-miterlimit: 10; stroke-width: 5px;"/>
    <polyline points="959 632 940.27 632 938.01 632" style="fill: none; stroke: #000; stroke-miterlimit: 10; stroke-width: 5px;"/>
    <polyline points="1546.5 632 1481.89 632 1417.28 632 1410.12 632 1388.44 632 1363.63 632 1352.67 632 1337.41 632 1303.61 632 1288.06 632 1241.84 632 1223.45 632 1205.96 632" style="fill: none; stroke: #000; stroke-miterlimit: 10; stroke-width: 5px;"/>
    <polyline points="980 668 952.68 668 942.93 668 940.27 668 938 668 866 668" style="fill: none; stroke: #000; stroke-miterlimit: 10; stroke-width: 5px;"/>
    <polyline points="1546.5 668 1481.89 668 1417.28 668 1373.07 668 1352.67 668 1344.87 668 1308.08 668 1288.06 668 1244.28 668 1223.45 668 1203.52 668" style="fill: none; stroke: #000; stroke-miterlimit: 10; stroke-width: 5px;"/>
    <polyline points="992 685 955.5 685 947.07 685 938 685 866 685" style="fill: none; stroke: #000; stroke-miterlimit: 10; stroke-width: 5px;"/>
    <polyline points="1546.5 685 1481.89 685 1417.28 685 1352.67 685 1349.13 685 1313.56 685 1288.06 685 1245.36 685 1223.45 685 1202.45 685" style="fill: none; stroke: #000; stroke-miterlimit: 10; stroke-width: 5px;"/>
    <polyline points="1000 703 961.28 703 938 703 866 703" style="fill: none; stroke: #000; stroke-miterlimit: 10; stroke-width: 5px;"/>
    <polyline points="1546.5 703 1481.89 703 1417.28 703 1352.67 703 1314.63 703 1288.06 703 1246.62 703 1223.45 703 1201.18 703" style="fill: none; stroke: #000; stroke-miterlimit: 10; stroke-width: 5px;"/>
    <polyline points="969 650 942.53 650 941.44 650 938 650 936.95 650 866 650" style="fill: none; stroke: #000; stroke-miterlimit: 10; stroke-width: 5px;"/>
    <polyline points="1546.5 650 1481.89 650 1417.28 650 1393.37 650 1369.2 650 1352.67 650 1340.37 650 1307.1 650 1288.06 650 1243.1 650 1223.45 650 1204.71 650" style="fill: none; stroke: #000; stroke-miterlimit: 10; stroke-width: 5px;"/>
    <polyline points="1010 722 938 722 866 722" style="fill: none; stroke: #000; stroke-miterlimit: 10; stroke-width: 5px;"/>
    <polyline points="1546.5 722 1481.89 722 1417.28 722 1352.67 722 1288.06 722 1223.45 722" style="fill: none; stroke: #000; stroke-miterlimit: 10; stroke-width: 5px;"/>
    <polyline points="938 434 938 452 938 470 938 488 938 506 938 559 938 563.99 938 570" style="fill: none; stroke: #000; stroke-miterlimit: 10; stroke-width: 5px;"/>
    <polyline points="956 534.5 956 540.46 956 546.41 956 552.37 956 558.32 956 575.86 956 577.51 956 579.5" style="fill: none; stroke: #000; stroke-miterlimit: 10; stroke-width: 5px;"/>
    <polyline points="972 569.5 972 572.94 972 576.38 972 579.82 972 583.26 972 593.4 972 594.35 972 595.5" style="fill: none; stroke: #000; stroke-miterlimit: 10; stroke-width: 5px;"/>
  </g>
  <g>
    <path d="M3516,722c-6.22,0-12.25-.79-18-2.27-6.39-1.64-12.43-4.14-18-7.36-4.58-2.66-8.85-5.8-12.72-9.37-1.86-1.7-3.62-3.5-5.28-5.39-3.41-3.86-6.41-8.08-8.93-12.61-1.03-1.84-1.98-3.74-2.85-5.68-1.62-3.62-2.94-7.41-3.95-11.32-.5-1.94-.92-3.91-1.26-5.91-.66-3.93-1.01-7.97-1.01-12.09" style="fill: none; stroke: #000; stroke-miterlimit: 10; stroke-width: 5px;"/>
    <path d="M3462.89,649.65c-.59-3.46-.89-7.02-.89-10.65" style="fill: none; stroke: #000; stroke-miterlimit: 10; stroke-width: 5px;"/>
    <path d="M3526,703c-3.4,0-6.74-.27-10-.78-6.36-.99-12.41-2.93-18-5.65-6.11-2.98-11.67-6.89-16.5-11.57-.51-.49-1.01-.99-1.5-1.5-4.42-4.56-8.16-9.78-11.07-15.5-.15-.28-.29-.57-.43-.86-2.62-5.33-4.51-11.09-5.55-17.14" style="fill: none; stroke: #000; stroke-miterlimit: 10; stroke-width: 5px;"/>
    <path d="M3534,685c-6.31,0-12.37-1.08-18-3.08-6.71-2.36-12.81-6.02-18-10.68-1.16-1.03-2.27-2.11-3.32-3.24-3.85-4.08-7.06-8.75-9.49-13.87-.64-1.35-1.22-2.73-1.75-4.13-1.74-4.61-2.86-9.52-3.26-14.63" style="fill: none; stroke: #000; stroke-miterlimit: 10; stroke-width: 5px;"/>
    <path d="M3546,668c-4.14,0-8.16-.52-12-1.51-6.67-1.72-12.78-4.83-18-9.02-2.76-2.21-5.26-4.71-7.47-7.47-2.69-3.34-4.93-7.06-6.64-11.05-.97-2.24-1.76-4.56-2.38-6.95-.99-3.84-1.51-7.86-1.51-12" style="fill: none; stroke: #000; stroke-miterlimit: 10; stroke-width: 5px;"/>
    <path d="M3557,650c-1.69,0-3.36-.1-5-.3-6.62-.81-12.75-3.19-18-6.76-4.3-2.92-8.02-6.64-10.94-10.94-2.13-3.13-3.83-6.57-5.04-10.24-.81-2.49-1.39-5.08-1.72-7.76-.2-1.64-.3-3.31-.3-5" style="fill: none; stroke: #000; stroke-miterlimit: 10; stroke-width: 5px;"/>
    <path d="M3567,632c-5.4,0-10.5-1.3-15-3.59-6.19-3.17-11.24-8.22-14.4-14.41-1.96-3.83-3.19-8.09-3.51-12.61-.06-.79-.09-1.59-.09-2.39" style="fill: none; stroke: #000; stroke-miterlimit: 10; stroke-width: 5px;"/>
    <path d="M3578.36,613.99c-.12.01-.24.01-.36.01-2.79,0-5.48-.44-8-1.26-8.26-2.66-14.7-9.34-17.04-17.74-.63-2.23-.96-4.57-.96-7" style="fill: none; stroke: #000; stroke-miterlimit: 10; stroke-width: 5px;"/>
    <path d="M3588,595c-.35,0-.69-.01-1.04-.03-8.97-.51-16.19-7.59-16.9-16.51,0-.15-.02-.31-.03-.46" style="fill: none; stroke: #000; stroke-miterlimit: 10; stroke-width: 5px;"/>
    <path d="M3596,578c-2.21,0-4.21-.9-5.66-2.34-1.44-1.45-2.34-3.45-2.34-5.66" style="fill: none; stroke: #000; stroke-miterlimit: 10; stroke-width: 5px;"/>
    <path d="M3300,145.86c2.84,0,5.67.05,8.49.14,21.87.67,43.12,3.76,63.51,9.03,25.54,6.6,49.72,16.6,72,29.5,6.15,3.55,12.15,7.33,18,11.32,6.18,4.21,12.18,8.65,18,13.31,3.57,2.86,7.07,5.81,10.5,8.84,2.54,2.23,5.04,4.52,7.5,6.84,6.27,5.94,12.28,12.16,18,18.64,6.37,7.21,12.38,14.74,18,22.56,5.55,7.71,10.73,15.7,15.5,23.96.85,1.46,1.69,2.93,2.5,4.41,6.94,12.48,12.97,25.54,18,39.07,11.64,31.23,18,65.03,18,100.3" style="fill: none; stroke: #000; stroke-miterlimit: 10; stroke-width: 5px;"/>
    <path d="M3372,712.52c-23.01,5.95-47.14,9.13-72,9.17h-.5c-24.68,0-48.63-3.09-71.5-8.92-25.53-6.49-49.7-16.39-72-29.17-16.8-9.63-32.54-20.9-46.99-33.6-8.83-7.74-17.18-16.03-25.01-24.8-12.94-14.49-24.43-30.3-34.25-47.2-20.84-35.86-34.14-76.62-37.75-120.12-.66-7.94-1-15.98-1-24.1s.34-16.16,1-24.1c3.59-43.33,16.81-83.93,37.5-119.68,9.87-17.07,21.45-33.03,34.5-47.65,7.68-8.6,15.86-16.73,24.5-24.35,14.59-12.88,30.5-24.3,47.5-34.05,22.3-12.78,46.47-22.68,72-29.17,20.08-5.12,41-8.13,62.51-8.78" style="fill: none; stroke: #000; stroke-miterlimit: 10; stroke-width: 5px;"/>
    <path d="M3299.01,578c-25.82,0-50.06-6.8-71.01-18.73-38.92-22.13-66.53-61.89-72-108.44-.66-5.59-1-11.28-1-17.05s.34-11.46,1-17.05c5.47-46.54,33.08-86.3,72-108.43,17.89-10.19,38.18-16.63,59.81-18.3,3.7-.29,7.43-.43,11.2-.43.33,0,.66,0,.99.01,3.43.02,6.84.16,10.21.42,22.43,1.73,43.42,8.6,61.79,19.44,42.5,25.08,71.02,71.38,71.02,124.34" style="fill: none; stroke: #000; stroke-miterlimit: 10; stroke-width: 5px;"/>
    <path d="M3372,558.13c-21.13,12.47-45.73,19.69-72,19.86" style="fill: none; stroke: #000; stroke-miterlimit: 10; stroke-width: 5px;"/>
    <path d="M3372,578.81c-21.67,10.9-46.12,17.08-72,17.19h-.72c-25.58,0-49.77-5.92-71.28-16.47-1.02-.5-2.03-1.01-3.03-1.53-29.33-15.15-53.45-39-68.97-68.13-12.13-22.77-19-48.76-19-76.37s6.87-53.6,19-76.37c15.18-28.5,38.59-51.93,67.06-67.13,1.63-.87,3.27-1.71,4.94-2.53,21.51-10.55,45.7-16.47,71.28-16.47h.72c25.88.11,50.33,6.29,72,17.19,1.18.59,2.34,1.2,3.5,1.81,29.38,15.69,53.38,40.15,68.5,69.9,11.23,22.09,17.56,47.1,17.56,73.6" style="fill: none; stroke: #000; stroke-miterlimit: 10; stroke-width: 5px;"/>
    <path d="M3372,600.24c-21.93,9.5-46.1,14.76-71.5,14.76h-.5c-25.6-.07-49.95-5.49-72-15.2-13.18-5.8-25.54-13.14-36.85-21.8-13.29-10.15-25.13-22.12-35.15-35.53-22.61-30.23-36-67.78-36-108.47s13.39-78.24,36-108.47c10.02-13.41,21.86-25.38,35.15-35.53,11.31-8.66,23.67-16,36.85-21.8,22.05-9.71,46.4-15.13,72-15.2h.5c25.4,0,49.57,5.26,71.5,14.76,13.56,5.87,26.26,13.36,37.85,22.24,12.85,9.81,24.34,21.32,34.15,34.2,6.86,9,12.9,18.66,18,28.88,9.46,18.94,15.69,39.77,18,61.77" style="fill: none; stroke: #000; stroke-miterlimit: 10; stroke-width: 5px;"/>
    <path d="M3372,619.69c-22.18,8.6-46.29,13.31-71.5,13.31h-.5c-25.41-.06-49.69-4.91-72-13.7-24.17-9.51-46.03-23.64-64.5-41.3-2.57-2.45-5.07-4.98-7.5-7.57-33.48-35.62-54-83.62-54-136.43s20.52-100.81,54-136.43c2.43-2.59,4.93-5.12,7.5-7.57,18.47-17.66,40.33-31.79,64.5-41.3,22.31-8.79,46.59-13.64,72-13.7h.5c25.21,0,49.32,4.71,71.5,13.31,24.57,9.51,46.78,23.78,65.5,41.69,2.22,2.12,4.38,4.29,6.5,6.51,6.49,6.81,12.51,14.08,18,21.76,6.87,9.62,12.91,19.88,18,30.68,9.47,20.03,15.69,41.9,18,64.92" style="fill: none; stroke: #000; stroke-miterlimit: 10; stroke-width: 5px;"/>
    <path d="M3462.49,290c6.32,7.13,12.17,14.68,17.51,22.6,6.87,10.2,12.91,21.01,18,32.34,9.49,21.13,15.71,44.05,18,68.13" style="fill: none; stroke: #000; stroke-miterlimit: 10; stroke-width: 5px;"/>
    <path d="M3372,638.93c-15.93,5.59-32.71,9.36-50.1,11.07-7.04.7-14.18,1.05-21.4,1.05h-.5c-7.05-.02-14.02-.37-20.89-1.05-17.76-1.74-34.88-5.64-51.11-11.42-26.83-9.56-51.23-24.27-72-42.95-6.16-5.54-12-11.42-17.49-17.63-33.92-38.32-54.51-88.75-54.51-144s20.59-105.68,54.51-144c5.49-6.21,11.33-12.09,17.49-17.63,20.77-18.68,45.17-33.39,72-42.95,16.23-5.78,33.35-9.68,51.11-11.42,6.87-.68,13.84-1.03,20.89-1.05h.5c7.22,0,14.36.35,21.4,1.05,17.39,1.71,34.17,5.48,50.1,11.07,26.8,9.39,51.19,23.92,72,42.4,6.35,5.64,12.36,11.64,18,17.98" style="fill: none; stroke: #000; stroke-miterlimit: 10; stroke-width: 5px;"/>
    <path d="M3372,657.96c-22.54,7.23-46.57,11.13-71.5,11.13h-.5c-25.13-.05-49.32-4.07-72-11.45-6.89-2.24-13.63-4.79-20.22-7.64-18.63-8.05-36.02-18.45-51.78-30.83-15.25-11.98-28.99-25.82-40.87-41.17-12.6-16.27-23.11-34.25-31.13-53.53-11.6-27.85-18-58.41-18-90.47s6.4-62.62,18-90.47c8.02-19.28,18.53-37.26,31.13-53.53,11.88-15.35,25.62-29.19,40.87-41.17,15.76-12.38,33.15-22.78,51.78-30.83,6.59-2.85,13.33-5.4,20.22-7.64,22.68-7.38,46.87-11.4,72-11.45h.5c24.93,0,48.96,3.9,71.5,11.13,7.23,2.31,14.31,4.98,21.22,7.96,18.24,7.88,35.29,18.01,50.78,30.05,6.26,4.86,12.27,10.03,18,15.5,6.35,6.04,12.36,12.44,18,19.16,2.01,2.39,3.96,4.82,5.87,7.29,4.29,5.54,8.34,11.28,12.13,17.2,6.88,10.75,12.92,22.1,18,33.96,9.5,22.13,15.71,46.01,18,71.03" style="fill: none; stroke: #000; stroke-miterlimit: 10; stroke-width: 5px;"/>
    <path d="M3372,675.8c-22.66,6.72-46.66,10.33-71.5,10.33h-.5c-25.03-.05-49.19-3.76-72-10.64-20.29-6.11-39.51-14.73-57.29-25.49-5.02-3.04-9.93-6.25-14.71-9.62-24.12-16.99-45.11-38.13-61.97-62.38-3.53-5.07-6.88-10.28-10.03-15.62-22.24-37.6-35-81.5-35-128.38s12.76-90.78,35-128.38c3.15-5.34,6.5-10.55,10.03-15.62,16.86-24.25,37.85-45.39,61.97-62.38,4.78-3.37,9.69-6.58,14.71-9.62,17.78-10.76,37-19.38,57.29-25.49,22.81-6.88,46.97-10.59,72-10.64h.5c24.84,0,48.84,3.61,71.5,10.33,20.66,6.14,40.22,14.86,58.29,25.8,4.67,2.82,9.25,5.8,13.71,8.92,6.21,4.33,12.22,8.93,18,13.8,6.27,5.26,12.27,10.83,18,16.68,6.36,6.49,12.37,13.33,18,20.49,3.11,3.94,6.1,7.98,8.97,12.11,3.16,4.54,6.17,9.19,9.03,13.95,6.93,11.5,12.96,23.6,18,36.21,11.61,29,18,60.68,18,93.84" style="fill: none; stroke: #000; stroke-miterlimit: 10; stroke-width: 5px;"/>
    <path d="M3462.42,218c6.06,4.58,11.93,9.4,17.58,14.47,6.27,5.62,12.28,11.52,18,17.7,6.36,6.86,12.37,14.06,18,21.56,4.43,5.91,8.63,12,12.57,18.27,1.87,2.96,3.68,5.97,5.43,9.01,6.93,12.01,12.96,24.61,18,37.7,11.63,30.19,18,62.99,18,97.29" style="fill: none; stroke: #000; stroke-miterlimit: 10; stroke-width: 5px;"/>
    <path d="M3372,694.56c-22.77,6.27-46.74,9.62-71.5,9.62h-.5c-24.94-.05-49.09-3.49-72-9.9-25.76-7.19-49.97-18.12-72-32.18-5.97-3.81-11.78-7.84-17.42-12.1-20.72-15.64-39.12-34.2-54.58-55.07-4.07-5.49-7.93-11.13-11.57-16.93-26.25-41.68-41.43-91.07-41.43-144s15.18-102.32,41.43-144c3.64-5.8,7.5-11.44,11.57-16.93,15.46-20.87,33.86-39.43,54.58-55.07,5.64-4.26,11.45-8.29,17.42-12.1,22.03-14.06,46.24-24.99,72-32.18,22.91-6.41,47.06-9.85,72-9.9h.5c24.76,0,48.73,3.35,71.5,9.62,25.75,7.08,49.96,17.89,72,31.83,6.17,3.89,12.18,8.04,18,12.41" style="fill: none; stroke: #000; stroke-miterlimit: 10; stroke-width: 5px;"/>
    <line x1="3300" y1="146" x2="3290.51" y2="146" style="fill: none; stroke: #000; stroke-miterlimit: 10; stroke-width: 5px;"/>
    <line x1="3300" y1="578" x2="3299.01" y2="578" style="fill: none; stroke: #000; stroke-miterlimit: 10; stroke-width: 5px;"/>
    <polyline points="3660 578 3605.97 578 3602.01 578 3596 578" style="fill: none; stroke: #000; stroke-miterlimit: 10; stroke-width: 5px;"/>
    <polyline points="3660 595 3603.04 595 3599.76 595 3595.55 595 3588 595" style="fill: none; stroke: #000; stroke-miterlimit: 10; stroke-width: 5px;"/>
    <polyline points="3660 614 3597.7 614 3596.41 614 3593.62 614 3588 614 3585.26 614 3584.94 614 3578.37 614" style="fill: none; stroke: #000; stroke-miterlimit: 10; stroke-width: 5px;"/>
    <polyline points="3587.99 632 3585.73 632 3570 632 3567 632" style="fill: none; stroke: #000; stroke-miterlimit: 10; stroke-width: 5px;"/>
    <polyline points="3660 632 3592.49 632 3590.94 632 3589.62 632 3588 632" style="fill: none; stroke: #000; stroke-miterlimit: 10; stroke-width: 5px;"/>
    <polyline points="3660 668 3588 668 3585.73 668 3583.07 668 3573.32 668 3570 668 3552 668 3546 668" style="fill: none; stroke: #000; stroke-miterlimit: 10; stroke-width: 5px;"/>
    <polyline points="3570 685 3552 685 3534 685" style="fill: none; stroke: #000; stroke-miterlimit: 10; stroke-width: 5px;"/>
    <polyline points="3660 685 3588 685 3578.93 685 3570.5 685" style="fill: none; stroke: #000; stroke-miterlimit: 10; stroke-width: 5px;"/>
    <polyline points="3660 703 3588 703 3570 703 3564.72 703 3552 703 3534 703 3526 703" style="fill: none; stroke: #000; stroke-miterlimit: 10; stroke-width: 5px;"/>
    <polyline points="3660 650 3589.05 650 3588 650 3584.56 650 3583.47 650 3570 650 3557 650" style="fill: none; stroke: #000; stroke-miterlimit: 10; stroke-width: 5px;"/>
    <polyline points="3660 722 3588 722 3570 722 3552 722 3534 722 3516 722" style="fill: none; stroke: #000; stroke-miterlimit: 10; stroke-width: 5px;"/>
    <polyline points="3444 433.78 3444 507.1 3444 543.8 3444 571.49 3444 578 3444 595 3444 596.53 3444 614 3444 619.95 3444 632 3444 641.08 3444 650" style="fill: none; stroke: #000; stroke-miterlimit: 10; stroke-width: 5px;"/>
    <polyline points="3462 578.55 3462 595 3462 602.39 3462 604.45 3462 614 3462 627.28 3462 632 3462 639" style="fill: none; stroke: #000; stroke-miterlimit: 10; stroke-width: 5px;"/>
    <polyline points="3462 433.5 3462 514.92 3462 549.73 3462 578" style="fill: none; stroke: #000; stroke-miterlimit: 10; stroke-width: 5px;"/>
    <polyline points="3480 414.85 3480 453.15 3480 519.05 3480 555.4 3480 578 3480 585.29 3480 587.63 3480 594.5 3480 595 3480 610.6 3480 614 3480 631 3480 632 3480 635.53" style="fill: none; stroke: #000; stroke-miterlimit: 10; stroke-width: 5px;"/>
    <polyline points="3498 413.87 3498 454.13 3498 523.06 3498 560.8 3498 578 3498 580.27 3498 581.43 3498 590.11 3498 590.76 3498 595 3498 614 3498 617.83 3498 620" style="fill: none; stroke: #000; stroke-miterlimit: 10; stroke-width: 5px;"/>
    <polyline points="3516 413.07 3516 454.93 3516 526.84 3516 564.05 3516 575.78 3516 578 3516 580.08 3516 582.53 3516 595 3516 596.27 3516 609" style="fill: none; stroke: #000; stroke-miterlimit: 10; stroke-width: 5px;"/>
    <polyline points="3534 412.19 3534 455.81 3534 527.84 3534 568.99 3534 573.51 3534 575.06 3534 575.49 3534 577 3534 578 3534 580.27 3534 595 3534 599" style="fill: none; stroke: #000; stroke-miterlimit: 10; stroke-width: 5px;"/>
    <polyline points="3552 434 3552 531.29 3552 568.3 3552 569.6 3552 572.38 3552 573.15 3552 578 3552 580.08 3552 580.5 3552 587.63 3552 588" style="fill: none; stroke: #000; stroke-miterlimit: 10; stroke-width: 5px;"/>
    <polyline points="3570 434 3570 534.08 3570 563.26 3570 566.14 3570 570.1 3570 577 3570 578" style="fill: none; stroke: #000; stroke-miterlimit: 10; stroke-width: 5px;"/>
    <polyline points="3588 433.78 3588 559 3588 563.99 3588 570" style="fill: none; stroke: #000; stroke-miterlimit: 10; stroke-width: 5px;"/>
  </g>
  <g>
    <path d="M4155.61,649.73c-3.45,3.44-6.99,6.77-10.61,9.98-1.73,1.54-3.48,3.05-5.26,4.54-1.35,1.14-2.72,2.27-4.1,3.38-2.51,2.02-5.06,3.99-7.64,5.91-1.67,1.25-3.36,2.48-5.07,3.68-3.64,2.58-7.34,5.05-11.11,7.41-.6.39-1.21.77-1.82,1.14-2.23,1.38-4.48,2.73-6.76,4.03-4.01,2.31-8.09,4.5-12.24,6.58-4.41,2.22-8.9,4.3-13.45,6.25-18.52,7.93-38.14,13.59-58.55,16.67-7.46,1.13-15.03,1.91-22.69,2.33-4.41.25-8.85.37-13.31.37s-8.9-.12-13.31-.37c-7.66-.42-15.23-1.2-22.69-2.33-20.41-3.08-40.03-8.74-58.55-16.67-4.55-1.95-9.04-4.03-13.45-6.25-4.15-2.08-8.23-4.27-12.24-6.58" style="fill: none; stroke: #000; stroke-miterlimit: 10; stroke-width: 5px;"/>
    <path d="M4185.75,613.92c-1.23,1.76-2.48,3.49-3.75,5.21-3.14,4.27-6.41,8.44-9.79,12.5-.39.47-.78.93-1.16,1.39-2.62,3.09-5.31,6.12-8.05,9.08-2.38,2.57-4.81,5.09-7.29,7.53" style="fill: none; stroke: #000; stroke-miterlimit: 10; stroke-width: 5px;"/>
    <path d="M4235,455.81c0,17.03-1.51,33.68-4.41,49.82-3.04,17.01-7.63,33.45-13.59,49.15-1.33,3.53-2.74,7.02-4.22,10.47-.06.16-.13.32-.2.47-.37.87-.75,1.73-1.13,2.59-.88,2-1.79,3.99-2.72,5.96-.53,1.12-1.06,2.24-1.61,3.36-.68,1.39-1.37,2.77-2.07,4.15-.11.23-.23.45-.34.68-1.08,2.1-2.19,4.19-3.32,6.25-.39.72-.79,1.44-1.19,2.15-.06.12-.13.24-.2.36-.64,1.14-1.29,2.28-1.94,3.41-3.78,6.53-7.83,12.87-12.11,19" style="fill: none; stroke: #000; stroke-miterlimit: 10; stroke-width: 5px;"/>
    <path d="M4199.36,361.63c.22.55.43,1.1.64,1.65" style="fill: none; stroke: #000; stroke-miterlimit: 10; stroke-width: 5px;"/>
    <path d="M4127.9,649.63c-4.56,3.8-9.25,7.42-14.07,10.85-1.27.9-2.54,1.79-3.83,2.67-2.24,1.53-4.51,3.03-6.81,4.48-2.77,1.75-5.58,3.45-8.42,5.07-1.25.73-2.5,1.43-3.77,2.12-6.53,3.6-13.24,6.87-20.12,9.81-16.44,7.04-33.82,12.16-51.88,15.1-11.74,1.91-23.76,2.9-36,2.9s-24.26-.99-36-2.9c-18.06-2.94-35.44-8.06-51.88-15.1-6.88-2.94-13.59-6.21-20.12-9.81-1.27-.69-2.52-1.39-3.77-2.12" style="fill: none; stroke: #000; stroke-miterlimit: 10; stroke-width: 5px;"/>
    <path d="M4217,455.81c0,17.07-1.64,33.73-4.77,49.82-2.87,14.76-6.98,29.04-12.23,42.71-2.82,7.36-5.97,14.55-9.44,21.54-.3.62-.62,1.25-.93,1.87-.73,1.44-1.47,2.87-2.22,4.29-.15.28-.29.55-.44.82-.14.26-.27.52-.41.77-.6,1.12-1.22,2.23-1.84,3.34-.88,1.59-1.79,3.17-2.72,4.74-1.77,3.02-3.6,5.99-5.49,8.92-4.15,6.42-8.57,12.61-13.26,18.57-.08.11-.16.22-.25.32-.02.04-.05.08-.09.11-4.94,6.27-10.18,12.28-15.69,18-.18.2-.37.39-.55.58-.55.57-1.11,1.14-1.67,1.7-4.61,4.67-9.4,9.15-14.37,13.4-.87.76-1.75,1.5-2.63,2.23" style="fill: none; stroke: #000; stroke-miterlimit: 10; stroke-width: 5px;"/>
    <path d="M4110,641.52c-3.7,2.83-7.5,5.53-11.37,8.11-2.46,1.63-4.95,3.22-7.47,4.74-.05.04-.1.07-.16.1-8.16,4.95-16.66,9.35-25.46,13.16-14.76,6.39-30.35,11.12-46.54,13.94-11.55,2.01-23.41,3.06-35.5,3.06s-24.64-1.11-36.5-3.24c-15.83-2.84-31.08-7.5-45.54-13.76-9.15-3.96-17.99-8.57-26.46-13.78" style="fill: none; stroke: #000; stroke-miterlimit: 10; stroke-width: 5px;"/>
    <path d="M4128,626.2c-1.95,1.85-3.93,3.67-5.94,5.43-3.89,3.43-7.89,6.72-12,9.84" style="fill: none; stroke: #000; stroke-miterlimit: 10; stroke-width: 5px;"/>
    <path d="M4200,455.81c0,17.11-1.78,33.78-5.15,49.82-3.03,14.46-7.36,28.41-12.85,41.69-3.95,9.54-8.49,18.75-13.58,27.56-.53.92-1.07,1.83-1.62,2.75,0,.03-.03.06-.05.09-.26.44-.53.89-.81,1.34-.32.54-.65,1.08-.99,1.62-.64,1.04-1.29,2.09-1.95,3.12-2.36,3.69-4.82,7.3-7.38,10.83-2.75,3.81-5.62,7.52-8.59,11.14-.67.81-1.34,1.62-2.03,2.43-1.55,1.84-3.13,3.65-4.74,5.43-3.87,4.29-7.89,8.43-12.06,12.38" style="fill: none; stroke: #000; stroke-miterlimit: 10; stroke-width: 5px;"/>
    <path d="M4182,455.81c0,17.16-1.91,33.84-5.52,49.82-3.2,14.18-7.75,27.81-13.48,40.72-4.87,10.98-10.6,21.44-17.09,31.28-.3.46-.61.91-.91,1.36l-.75,1.11c-.68,1-1.37,2-2.07,2.99-2.79,3.96-5.71,7.81-8.75,11.54-1.77,2.17-3.57,4.31-5.43,6.4-3.86,4.38-7.9,8.59-12.11,12.6-.45.44-.9.86-1.35,1.28-1.49,1.41-3.01,2.79-4.54,4.14-5.05,4.46-10.31,8.67-15.77,12.58-.39.28-.78.56-1.17.83-.68.5-1.37.97-2.06,1.45-8.66,5.97-17.79,11.23-27.31,15.72-14.11,6.66-29.08,11.62-44.69,14.62-11.52,2.22-23.38,3.38-35.5,3.38s-24.67-1.23-36.5-3.58c-15.25-3.02-29.88-7.9-43.69-14.42-9.89-4.66-19.35-10.16-28.31-16.41" style="fill: none; stroke: #000; stroke-miterlimit: 10; stroke-width: 5px;"/>
    <path d="M4163,455.81c0,17.22-2.09,33.92-6.01,49.82-2.97,12.09-7.01,23.72-11.99,34.76-4.82,10.68-10.52,20.81-17,30.28-1.62,2.36-3.28,4.69-5,6.96-4.07,5.43-8.41,10.62-13,15.53-.46.5-.92.99-1.39,1.47-5.53,5.81-11.42,11.24-17.61,16.25-1.15.93-2.31,1.85-3.49,2.75-8.97,6.9-18.56,12.94-28.65,18-12.57,6.29-25.92,11.08-39.86,14.12-11.63,2.55-23.67,3.88-36,3.88s-24.37-1.33-36-3.88c-13.94-3.04-27.29-7.83-39.86-14.12-10.09-5.06-19.68-11.1-28.65-18-1.18-.9-2.34-1.82-3.49-2.75" style="fill: none; stroke: #000; stroke-miterlimit: 10; stroke-width: 5px;"/>
    <path d="M4145,455.81c0,17.31-2.3,34.03-6.6,49.82-2.7,9.95-6.19,19.54-10.4,28.67-5.03,10.92-11.07,21.19-18,30.67-3.21,4.4-6.62,8.62-10.19,12.66-2.83,3.2-5.77,6.27-8.81,9.22-2.77,2.7-5.64,5.3-8.58,7.78-8.65,7.32-18.01,13.7-27.94,19-11.16,5.97-23.05,10.58-35.48,13.64-11.58,2.85-23.63,4.36-36,4.36s-24.42-1.51-36-4.36c-12.43-3.06-24.32-7.67-35.48-13.64-9.93-5.3-19.29-11.68-27.94-19-2.94-2.48-5.81-5.08-8.58-7.78" style="fill: none; stroke: #000; stroke-miterlimit: 10; stroke-width: 5px;"/>
    <path d="M4128,455.81c0,17.41-2.58,34.16-7.35,49.82-2.81,9.25-6.39,18.12-10.65,26.52-5.32,10.5-11.7,20.26-19,29.12-4.82,5.86-10.04,11.33-15.61,16.36-7.15,6.43-14.88,12.14-23.08,17-10.4,6.16-21.57,10.96-33.31,14.2-11.36,3.14-23.25,4.8-35.5,4.8s-24.84-1.76-36.5-5.08c-11.38-3.23-22.21-7.94-32.31-13.92-8.2-4.86-15.93-10.57-23.08-17-5.95-5.38-11.51-11.26-16.61-17.58" style="fill: none; stroke: #000; stroke-miterlimit: 10; stroke-width: 5px;"/>
    <path d="M4110,455.81c0,17.56-2.97,34.36-8.39,49.82-2.88,8.2-6.44,16.03-10.61,23.39-11.5,20.3-27.65,37.1-46.8,48.61-7.92,4.77-16.36,8.63-25.2,11.46-11.26,3.61-23.18,5.54-35.5,5.54s-24.94-2.05-36.5-5.86c-8.47-2.8-16.58-6.55-24.2-11.14-19.71-11.85-36.24-29.3-47.8-50.41" style="fill: none; stroke: #000; stroke-miterlimit: 10; stroke-width: 5px;"/>
    <path d="M4091,455.81c0,17.75-3.37,34.61-9.42,49.82-12.02,30.24-34.66,53.94-62.58,65.06-11.26,4.5-23.38,6.94-36,6.94s-24.74-2.44-36-6.94c-27.92-11.12-50.56-34.82-62.58-65.06-6.05-15.21-9.42-32.07-9.42-49.82" style="fill: none; stroke: #000; stroke-miterlimit: 10; stroke-width: 5px;"/>
    <path d="M4163,721.63c-6.22,0-12.25-.79-18-2.27-6.01-1.55-11.71-3.85-17-6.8-4.97-2.76-9.57-6.1-13.72-9.93-1.49-1.36-2.92-2.79-4.28-4.28-2.46-2.67-4.72-5.53-6.76-8.55" style="fill: none; stroke: #000; stroke-miterlimit: 10; stroke-width: 5px;"/>
    <path d="M4174,702.63c-3.75,0-7.43-.32-11-.95-6.38-1.09-12.43-3.14-18-5.98-5.72-2.91-10.94-6.65-15.5-11.07-.51-.49-1.01-.99-1.5-1.5-1.81-1.86-3.5-3.84-5.07-5.91" style="fill: none; stroke: #000; stroke-miterlimit: 10; stroke-width: 5px;"/>
    <path d="M4182,684.63c-6.69,0-13.09-1.21-19-3.44-6.74-2.53-12.85-6.38-18-11.24-.8-.74-1.58-1.52-2.32-2.32-1.03-1.09-2.01-2.21-2.94-3.38" style="fill: none; stroke: #000; stroke-miterlimit: 10; stroke-width: 5px;"/>
    <path d="M4193,667.63c-3.79,0-7.47-.44-11-1.27-7.07-1.65-13.53-4.87-19-9.26-2.72-2.18-5.2-4.65-7.39-7.37" style="fill: none; stroke: #000; stroke-miterlimit: 10; stroke-width: 5px;"/>
    <path d="M4204,649.63c-1.35,0-2.69-.07-4-.19-6.58-.64-12.7-2.83-18-6.21-4.25-2.7-7.96-6.17-10.95-10.21" style="fill: none; stroke: #000; stroke-miterlimit: 10; stroke-width: 5px;"/>
    <path d="M4217,631.57c-.66.04-1.33.06-2,.06-5.4,0-10.5-1.3-15-3.59-6.09-3.12-11.08-8.06-14.25-14.12" style="fill: none; stroke: #000; stroke-miterlimit: 10; stroke-width: 5px;"/>
    <path d="M4225.36,613.62c-2.93-.07-5.75-.63-8.36-1.59-7.77-2.87-13.8-9.34-16.04-17.4-.35-1.22-.6-2.48-.76-3.77" style="fill: none; stroke: #000; stroke-miterlimit: 10; stroke-width: 5px;"/>
    <path d="M4235,594.63c-.35,0-.69-.01-1.04-.03-8.97-.51-16.19-7.59-16.9-16.51-.01-.15-.02-.31-.03-.46" style="fill: none; stroke: #000; stroke-miterlimit: 10; stroke-width: 5px;"/>
    <path d="M4243,577.63c-1.08,0-2.1-.21-3.04-.6-1.89-.77-3.41-2.25-4.25-4.1-.46-1.01-.71-2.12-.71-3.3" style="fill: none; stroke: #000; stroke-miterlimit: 10; stroke-width: 5px;"/>
    <path d="M3803,721.63c6.22,0,12.25-.79,18-2.27,6.39-1.64,12.43-4.14,18-7.36,4.58-2.66,8.85-5.8,12.72-9.37,1.86-1.7,3.62-3.5,5.28-5.39,2.08-2.35,4-4.83,5.76-7.44,1.13-1.67,2.19-3.4,3.17-5.17,2.11-3.78,3.89-7.77,5.3-11.93.56-1.66,1.06-3.35,1.5-5.07,1.15-4.46,1.88-9.09,2.15-13.85" style="fill: none; stroke: #000; stroke-miterlimit: 10; stroke-width: 5px;"/>
    <path d="M3793,702.63c3.4,0,6.74-.27,10-.78,6.36-.99,12.41-2.93,18-5.65,6.11-2.98,11.67-6.89,16.5-11.57.51-.49,1.01-.99,1.5-1.5,1.67-1.72,3.25-3.54,4.72-5.45,2.41-3.13,4.54-6.49,6.35-10.05,1.09-2.13,2.05-4.33,2.9-6.59,1.37-3.65,2.41-7.47,3.08-11.41.47-2.66.77-5.39.89-8.16" style="fill: none; stroke: #000; stroke-miterlimit: 10; stroke-width: 5px;"/>
    <path d="M3785,684.63c6.31,0,12.37-1.08,18-3.08,6.71-2.36,12.81-6.02,18-10.68,1.16-1.03,2.27-2.11,3.32-3.24.88-.93,1.73-1.89,2.54-2.88,3.67-4.5,6.63-9.59,8.7-15.12.21-.55.41-1.1.59-1.65,1.75-5.15,2.74-10.64,2.84-16.35" style="fill: none; stroke: #000; stroke-miterlimit: 10; stroke-width: 5px;"/>
    <path d="M3810.47,649.63c4.06-5.06,7.12-10.97,8.86-17.42.06-.19.11-.39.16-.58.99-3.84,1.51-7.86,1.51-12" style="fill: none; stroke: #000; stroke-miterlimit: 10; stroke-width: 5px;"/>
    <path d="M3773,667.63c4.14,0,8.16-.52,12-1.51,6.67-1.72,12.78-4.83,18-9.02,2.72-2.18,5.2-4.65,7.39-7.37" style="fill: none; stroke: #000; stroke-miterlimit: 10; stroke-width: 5px;"/>
    <path d="M3762,649.63c1.69,0,3.36-.1,5-.3,6.62-.81,12.75-3.19,18-6.76,3.83-2.6,7.2-5.83,9.95-9.55.34-.45.67-.92.99-1.39,3.57-5.25,5.95-11.38,6.76-18,.02-.14.03-.28.05-.43.16-1.5.25-3.02.25-4.57" style="fill: none; stroke: #000; stroke-miterlimit: 10; stroke-width: 5px;"/>
    <path d="M3752,631.63c5.4,0,10.5-1.3,15-3.59,5.82-2.98,10.64-7.63,13.82-13.32.2-.36.4-.73.59-1.09,2.29-4.5,3.59-9.6,3.59-15" style="fill: none; stroke: #000; stroke-miterlimit: 10; stroke-width: 5px;"/>
    <path d="M3741,613.63c2.79,0,5.48-.44,8-1.26,8.26-2.66,14.7-9.34,17.04-17.74.22-.78.41-1.57.54-2.38.28-1.5.42-3.04.42-4.62" style="fill: none; stroke: #000; stroke-miterlimit: 10; stroke-width: 5px;"/>
    <path d="M3731,594.63c.35,0,.69-.01,1.04-.03,8.97-.51,16.19-7.59,16.9-16.51.01-.15.02-.31.03-.46.02-.33.03-.67.03-1" style="fill: none; stroke: #000; stroke-miterlimit: 10; stroke-width: 5px;"/>
    <path d="M3723,577.63c2.21,0,4.21-.9,5.66-2.34,1.44-1.45,2.34-3.45,2.34-5.66" style="fill: none; stroke: #000; stroke-miterlimit: 10; stroke-width: 5px;"/>
    <polyline points="3723 577.63 3716.99 577.63 3713.03 577.63 3659 577.63" style="fill: none; stroke: #000; stroke-miterlimit: 10; stroke-width: 5px;"/>
    <polyline points="4307 577.63 4252.97 577.63 4250.01 577.63 4243 577.63" style="fill: none; stroke: #000; stroke-miterlimit: 10; stroke-width: 5px;"/>
    <polyline points="3731 594.63 3723.45 594.63 3719.24 594.63 3715.96 594.63 3659 594.63" style="fill: none; stroke: #000; stroke-miterlimit: 10; stroke-width: 5px;"/>
    <polyline points="4307 594.63 4251.04 594.63 4247.76 594.63 4242.55 594.63 4235 594.63" style="fill: none; stroke: #000; stroke-miterlimit: 10; stroke-width: 5px;"/>
    <polyline points="3741 613.63 3740.63 613.63 3734.06 613.63 3733.74 613.63 3731 613.63 3725.38 613.63 3722.6 613.63 3721.3 613.63 3659 613.63" style="fill: none; stroke: #000; stroke-miterlimit: 10; stroke-width: 5px;"/>
    <polyline points="4232.94 613.63 4226 613.63 4225.37 613.63" style="fill: none; stroke: #000; stroke-miterlimit: 10; stroke-width: 5px;"/>
    <polyline points="4307 613.63 4244.7 613.63 4244.41 613.63 4240.62 613.63 4235 613.63 4233.26 613.63" style="fill: none; stroke: #000; stroke-miterlimit: 10; stroke-width: 5px;"/>
    <polyline points="3731 631.63 3729.38 631.63 3728.06 631.63 3726.51 631.63 3659 631.63" style="fill: none; stroke: #000; stroke-miterlimit: 10; stroke-width: 5px;"/>
    <polyline points="3752 631.63 3749 631.63 3733.27 631.63 3731.01 631.63" style="fill: none; stroke: #000; stroke-miterlimit: 10; stroke-width: 5px;"/>
    <polyline points="4307 631.63 4239.49 631.63 4237.94 631.63 4237.62 631.63 4235.99 631.63 4235 631.63 4232.73 631.63 4217 631.63" style="fill: none; stroke: #000; stroke-miterlimit: 10; stroke-width: 5px;"/>
    <polyline points="3773 667.63 3767 667.63 3749 667.63 3745.68 667.63 3735.93 667.63 3733.27 667.63 3731 667.63 3659 667.63" style="fill: none; stroke: #000; stroke-miterlimit: 10; stroke-width: 5px;"/>
    <polyline points="4307 667.63 4235 667.63 4232.73 667.63 4231.07 667.63 4221.32 667.63 4217 667.63 4200 667.63 4193 667.63" style="fill: none; stroke: #000; stroke-miterlimit: 10; stroke-width: 5px;"/>
    <polyline points="3785 684.63 3767 684.63 3749 684.63 3748.5 684.63 3740.07 684.63 3731 684.63 3659 684.63" style="fill: none; stroke: #000; stroke-miterlimit: 10; stroke-width: 5px;"/>
    <polyline points="4307 684.63 4235 684.63 4225.93 684.63 4218.5 684.63 4217 684.63 4200 684.63 4182 684.63" style="fill: none; stroke: #000; stroke-miterlimit: 10; stroke-width: 5px;"/>
    <polyline points="3793 702.63 3785 702.63 3767 702.63 3754.28 702.63 3749 702.63 3731 702.63 3659 702.63" style="fill: none; stroke: #000; stroke-miterlimit: 10; stroke-width: 5px;"/>
    <polyline points="4307 702.63 4235 702.63 4217 702.63 4211.72 702.63 4200 702.63 4182 702.63 4174 702.63" style="fill: none; stroke: #000; stroke-miterlimit: 10; stroke-width: 5px;"/>
    <polyline points="3762 649.63 3749 649.63 3735.53 649.63 3734.44 649.63 3731 649.63 3729.95 649.63 3659 649.63" style="fill: none; stroke: #000; stroke-miterlimit: 10; stroke-width: 5px;"/>
    <polyline points="4307 649.63 4237.05 649.63 4235 649.63 4232.56 649.63 4230.47 649.63 4217 649.63 4204 649.63" style="fill: none; stroke: #000; stroke-miterlimit: 10; stroke-width: 5px;"/>
    <polyline points="3803 721.63 3785 721.63 3767 721.63 3749 721.63 3731 721.63 3659 721.63" style="fill: none; stroke: #000; stroke-miterlimit: 10; stroke-width: 5px;"/>
    <polyline points="4307 721.63 4235 721.63 4217 721.63 4200 721.63 4182 721.63 4163 721.63" style="fill: none; stroke: #000; stroke-miterlimit: 10; stroke-width: 5px;"/>
    <polyline points="4091 145.63 4091 215.25 4091 217.63 4091 236.81 4091 257.16 4091 277.72 4091 289.63 4091 300.75 4091 324.77 4091 350.36 4091 361.63 4091 382.61 4091 433.63 4091 455.81" style="fill: none; stroke: #000; stroke-miterlimit: 10; stroke-width: 5px;"/>
    <polyline points="4163 145.63 4163 217.63 4163 269.52 4163 289.63 4163 298.11 4163 327.83 4163 361.63 4163 365.28 4163 433.63 4163 455.81" style="fill: none; stroke: #000; stroke-miterlimit: 10; stroke-width: 5px;"/>
    <polyline points="4145 145.63 4145 217.63 4145 251.91 4145 277.72 4145 289.63 4145 303.43 4145 332.64 4145 361.63 4145 371.24 4145 433.63 4145 455.81" style="fill: none; stroke: #000; stroke-miterlimit: 10; stroke-width: 5px;"/>
    <polyline points="4128 145.63 4128 217.63 4128 238.09 4128 262.09 4128 285.43 4128 289.63 4128 310.6 4128 340.96 4128 361.63 4128 377.32 4128 433.63 4128 455.81" style="fill: none; stroke: #000; stroke-miterlimit: 10; stroke-width: 5px;"/>
    <polyline points="4110 145.63 4110 217.63 4110 225.85 4110 248.49 4110 270.11 4110 289.63 4110 292.58 4110 318.47 4110 346.65 4110 361.63 4110 379.48 4110 433.63 4110 455.81" style="fill: none; stroke: #000; stroke-miterlimit: 10; stroke-width: 5px;"/>
    <polyline points="4235 145.63 4235 217.63 4235 289.63 4235 361.63 4235 433.63 4235 455.81 4235 505.63 4235 558.63 4235 563.23 4235 569.63" style="fill: none; stroke: #000; stroke-miterlimit: 10; stroke-width: 5px;"/>
    <polyline points="4217 554.78 4217 563.23 4217 565.69 4217 569.73 4217 576.63 4217 577.63" style="fill: none; stroke: #000; stroke-miterlimit: 10; stroke-width: 5px;"/>
    <polyline points="4217 145.63 4217 217.63 4217 289.63 4217 356.84 4217 361.63 4217 433.63 4217 455.81" style="fill: none; stroke: #000; stroke-miterlimit: 10; stroke-width: 5px;"/>
    <polyline points="4200 363.28 4200 433.63 4200 455.81" style="fill: none; stroke: #000; stroke-miterlimit: 10; stroke-width: 5px;"/>
    <polyline points="4200 145.63 4200 217.63 4200 289.63 4200 320.4 4200 361.63" style="fill: none; stroke: #000; stroke-miterlimit: 10; stroke-width: 5px;"/>
    <polyline points="4182 145.63 4182 217.63 4182 289.63 4182 292.49 4182 325.91 4182 361.63 4182 364.31 4182 433.63 4182 455.81" style="fill: none; stroke: #000; stroke-miterlimit: 10; stroke-width: 5px;"/>
    <polyline points="3731 145.63 3731 217.63 3731 289.63 3731 361.63 3731 433.63 3731 455.81 3731 505.63 3731 558.63 3731 563.62 3731 569.63" style="fill: none; stroke: #000; stroke-miterlimit: 10; stroke-width: 5px;"/>
    <polyline points="3749 145.63 3749 217.63 3749 289.63 3749 356.84 3749 361.63 3749 433.63 3749 455.81 3749 505.63 3749 554.78 3749 562.89 3749 565.77 3749 569.73 3749 576.63" style="fill: none; stroke: #000; stroke-miterlimit: 10; stroke-width: 5px;"/>
    <polyline points="3767 145.63 3767 217.63 3767 289.63 3767 318.64 3767 360.72 3767 361.63 3767 433.63 3767 455.81 3767 505.63 3767 550.9 3767 567.93 3767 569.23 3767 572.01 3767 577.63 3767 579.71 3767 580.13 3767 587.26 3767 587.63" style="fill: none; stroke: #000; stroke-miterlimit: 10; stroke-width: 5px;"/>
    <polyline points="3785 145.63 3785 217.63 3785 289.63 3785 291.14 3785 324.23 3785 361.63 3785 364.31 3785 433.63 3785 455.81 3785 505.63 3785 547.32 3785 573.14 3785 574.69 3785 575.12 3785 576.63 3785 577.63 3785 579.9 3785 587.39 3785 594.63 3785 598.63" style="fill: none; stroke: #000; stroke-miterlimit: 10; stroke-width: 5px;"/>
    <polyline points="3821 145.63 3821 217.63 3821 251.91 3821 277.72 3821 289.63 3821 304.62 3821 334.14 3821 361.63 3821 371.24 3821 433.63 3821 455.81 3821 505.63 3821 540.39 3821 577.49 3821 577.63 3821 579.9 3821 581.06 3821 590.39 3821 594.63 3821 607.01 3821 613.63 3821 619.63" style="fill: none; stroke: #000; stroke-miterlimit: 10; stroke-width: 5px;"/>
    <polyline points="3839 145.63 3839 217.63 3839 237.35 3839 261.26 3839 285.43 3839 289.63 3839 310.6 3839 339.51 3839 361.63 3839 375.19 3839 433.63 3839 455.81 3839 505.63 3839 536.43 3839 572.12 3839 577.63 3839 587.26 3839 594.13 3839 594.63 3839 601.03 3839 613.63 3839 626.2 3839 630.63 3839 631.63" style="fill: none; stroke: #000; stroke-miterlimit: 10; stroke-width: 5px;"/>
    <polyline points="3857 145.63 3857 217.63 3857 225.24 3857 247.81 3857 270.11 3857 289.63 3857 292.58 3857 317.42 3857 345.29 3857 361.63 3857 379.48 3857 433.63 3857 455.81 3857 505.63 3857 532.15 3857 566.33 3857 577.63 3857 594.21 3857 594.63 3857 602.02 3857 613.63 3857 619.05 3857 631.63 3857 638.63 3857 641.52" style="fill: none; stroke: #000; stroke-miterlimit: 10; stroke-width: 5px;"/>
    <polyline points="3803 145.63 3803 217.63 3803 269.52 3803 289.63 3803 298.11 3803 329.42 3803 361.63 3803 367.57 3803 433.63 3803 455.81 3803 505.63 3803 544.06 3803 575.41 3803 577.63 3803 579.71 3803 582.16 3803 582.21 3803 594.63 3803 608.63" style="fill: none; stroke: #000; stroke-miterlimit: 10; stroke-width: 5px;"/>
    <polyline points="3875 145.63 3875 215.25 3875 217.63 3875 236.81 3875 257.78 3875 278.41 3875 289.63 3875 300.75 3875 324.77 3875 351.58 3875 361.63 3875 384.41 3875 433.63 3875 455.81 3875 505.63 3875 527.22 3875 560.05 3875 577.63 3875 586.85 3875 594.63 3875 610.88 3875 613.63 3875 631.63 3875 633.22 3875 649.63 3875 653.85" style="fill: none; stroke: #000; stroke-miterlimit: 10; stroke-width: 5px;"/>
  </g>
  <g>
    <polyline points="2412 363 2340 363 2268 363" style="fill: none; stroke: #000; stroke-miterlimit: 10; stroke-width: 5px;"/>
    <line x1="2844" y1="363" x2="2556" y2="363" style="fill: none; stroke: #000; stroke-miterlimit: 10; stroke-width: 5px;"/>
    <polyline points="2412 308 2340 308 2268 308" style="fill: none; stroke: #000; stroke-miterlimit: 10; stroke-width: 5px;"/>
    <line x1="2844" y1="308" x2="2556" y2="308" style="fill: none; stroke: #000; stroke-miterlimit: 10; stroke-width: 5px;"/>
    <polyline points="2412 327 2340 327 2268 327" style="fill: none; stroke: #000; stroke-miterlimit: 10; stroke-width: 5px;"/>
    <line x1="2844" y1="327" x2="2556" y2="327" style="fill: none; stroke: #000; stroke-miterlimit: 10; stroke-width: 5px;"/>
    <polyline points="2412 290 2340 290 2268 290" style="fill: none; stroke: #000; stroke-miterlimit: 10; stroke-width: 5px;"/>
    <line x1="2844" y1="290" x2="2556" y2="290" style="fill: none; stroke: #000; stroke-miterlimit: 10; stroke-width: 5px;"/>
    <polyline points="2412 344 2340 344 2268 344" style="fill: none; stroke: #000; stroke-miterlimit: 10; stroke-width: 5px;"/>
    <line x1="2844" y1="344" x2="2556" y2="344" style="fill: none; stroke: #000; stroke-miterlimit: 10; stroke-width: 5px;"/>
    <polyline points="2412 434 2340 434 2268 434" style="fill: none; stroke: #000; stroke-miterlimit: 10; stroke-width: 5px;"/>
    <line x1="2844" y1="434" x2="2556" y2="434" style="fill: none; stroke: #000; stroke-miterlimit: 10; stroke-width: 5px;"/>
    <polyline points="2412 381 2340 381 2268 381" style="fill: none; stroke: #000; stroke-miterlimit: 10; stroke-width: 5px;"/>
    <line x1="2844" y1="381" x2="2556" y2="381" style="fill: none; stroke: #000; stroke-miterlimit: 10; stroke-width: 5px;"/>
    <polyline points="2412 399 2340 399 2268 399" style="fill: none; stroke: #000; stroke-miterlimit: 10; stroke-width: 5px;"/>
    <line x1="2844" y1="399" x2="2556" y2="399" style="fill: none; stroke: #000; stroke-miterlimit: 10; stroke-width: 5px;"/>
    <polyline points="2412 417 2340 417 2268 417" style="fill: none; stroke: #000; stroke-miterlimit: 10; stroke-width: 5px;"/>
    <line x1="2844" y1="417" x2="2556" y2="417" style="fill: none; stroke: #000; stroke-miterlimit: 10; stroke-width: 5px;"/>
    <polyline points="2412 2 2412 290 2412 308 2412 327 2412 344 2412 363 2412 381 2412 399 2412 417 2412 434 2412 722" style="fill: none; stroke: #000; stroke-miterlimit: 10; stroke-width: 5px;"/>
    <polyline points="2430 2 2430 290 2430 308 2430 327 2430 344 2430 363 2430 381 2430 399 2430 417 2430 434 2430 722" style="fill: none; stroke: #000; stroke-miterlimit: 10; stroke-width: 5px;"/>
    <polyline points="2448 2 2448 290 2448 308 2448 327 2448 344 2448 363 2448 381 2448 399 2448 417 2448 434 2448 722" style="fill: none; stroke: #000; stroke-miterlimit: 10; stroke-width: 5px;"/>
    <polyline points="2466 2 2466 290 2466 308 2466 327 2466 344 2466 363 2466 381 2466 399 2466 417 2466 434 2466 722" style="fill: none; stroke: #000; stroke-miterlimit: 10; stroke-width: 5px;"/>
    <polyline points="2502 2 2502 290 2502 308 2502 327 2502 344 2502 363 2502 381 2502 399 2502 417 2502 434 2502 722" style="fill: none; stroke: #000; stroke-miterlimit: 10; stroke-width: 5px;"/>
    <polyline points="2520 2 2520 290 2520 308 2520 327 2520 344 2520 363 2520 381 2520 399 2520 417 2520 434 2520 722" style="fill: none; stroke: #000; stroke-miterlimit: 10; stroke-width: 5px;"/>
    <polyline points="2539 2 2539 290 2539 308 2539 327 2539 344 2539 363 2539 381 2539 399 2539 417 2539 434 2539 722" style="fill: none; stroke: #000; stroke-miterlimit: 10; stroke-width: 5px;"/>
    <polyline points="2484 2 2484 290 2484 308 2484 327 2484 344 2484 363 2484 381 2484 399 2484 417 2484 434 2484 722" style="fill: none; stroke: #000; stroke-miterlimit: 10; stroke-width: 5px;"/>
    <polyline points="2862 2 2862 290 2862 308 2862 327 2862 344 2862 363 2862 381 2862 399 2862 417 2862 434 2862 722" style="fill: none; stroke: #000; stroke-miterlimit: 10; stroke-width: 5px;"/>
    <polyline points="2880 2 2880 290 2880 308 2880 327 2880 344 2880 363 2880 381 2880 399 2880 417 2880 434 2880 722" style="fill: none; stroke: #000; stroke-miterlimit: 10; stroke-width: 5px;"/>
    <polyline points="2898 2 2898 290 2898 308 2898 327 2898 344 2898 363 2898 381 2898 399 2898 417 2898 434 2898 722" style="fill: none; stroke: #000; stroke-miterlimit: 10; stroke-width: 5px;"/>
    <polyline points="2934 2 2934 290 2934 308 2934 327 2934 344 2934 363 2934 381 2934 399 2934 417 2934 434 2934 722" style="fill: none; stroke: #000; stroke-miterlimit: 10; stroke-width: 5px;"/>
    <polyline points="2952 2 2952 290 2952 308 2952 327 2952 344 2952 363 2952 381 2952 399 2952 417 2952 434 2952 722" style="fill: none; stroke: #000; stroke-miterlimit: 10; stroke-width: 5px;"/>
    <polyline points="2971 2 2971 290 2971 308 2971 327 2971 344 2971 363 2971 381 2971 399 2971 417 2971 434 2971 722" style="fill: none; stroke: #000; stroke-miterlimit: 10; stroke-width: 5px;"/>
    <polyline points="2916 2 2916 290 2916 308 2916 327 2916 344 2916 363 2916 381 2916 399 2916 417 2916 434 2916 722" style="fill: none; stroke: #000; stroke-miterlimit: 10; stroke-width: 5px;"/>
    <polyline points="2556 2 2556 290 2556 308 2556 327 2556 344 2556 363 2556 381 2556 399 2556 417 2556 434 2556 722" style="fill: none; stroke: #000; stroke-miterlimit: 10; stroke-width: 5px;"/>
    <polyline points="2844 2 2844 290 2844 308 2844 327 2844 344 2844 363 2844 381 2844 399 2844 417 2844 434 2844 722" style="fill: none; stroke: #000; stroke-miterlimit: 10; stroke-width: 5px;"/>
    <polyline points="2988 2 2988 290 2988 308 2988 327 2988 344 2988 363 2988 381 2988 399 2988 417 2988 434 2988 722" style="fill: none; stroke: #000; stroke-miterlimit: 10; stroke-width: 5px;"/>
  </g>
  <g>
    <path d="M856.63,289.5c1.22,5.95,2.3,11.95,3.23,18,.9,5.96,1.67,11.95,2.28,18,.61,5.96,1.07,11.96,1.38,18,.31,5.96.47,11.96.48,18v.75c0,5.78-.14,11.54-.41,17.25-.28,6.04-.72,12.04-1.31,18-.58,6.05-1.32,12.05-2.21,18-.89,6.05-1.94,12.05-3.14,18-33.13,164.55-178.78,288.5-353.43,288.5-84.37,0-161.98-28.93-223.39-77.38-65.72-51.85-112.91-126.06-130.04-211.12-1.2-5.95-2.25-11.95-3.14-18-.89-5.95-1.63-11.95-2.21-18-.59-5.96-1.03-11.96-1.31-18-.27-5.71-.41-11.47-.41-17.25" style="fill: none; stroke: #000; stroke-miterlimit: 10; stroke-width: 5px;"/>
    <path d="M143,361.5c.01-6.04.17-12.04.48-18,.31-6.04.77-12.04,1.38-18,.61-6.05,1.38-12.04,2.28-18,.93-6.05,2.01-12.05,3.23-18C184.09,125.69,329.38,2.5,503.5,2.5c103.36,0,196.57,43.41,262.28,112.96" style="fill: none; stroke: #000; stroke-miterlimit: 10; stroke-width: 5px;"/>
    <path d="M841.77,307.5c.95,5.95,1.74,11.95,2.36,18,.63,5.96,1.1,11.95,1.41,18,.31,5.89.46,11.82.46,17.79v.21c0,6.04-.16,12.04-.49,18-.31,6.05-.78,12.05-1.42,18-.63,6.05-1.43,12.05-2.39,18-.96,6.05-2.09,12.06-3.38,18-33.19,153.81-170.27,269.08-334.32,269.08-79.45,0-152.58-27.04-210.64-72.4-61.82-48.29-106.57-117.36-123.68-196.68-1.29-5.94-2.42-11.95-3.38-18-.96-5.95-1.76-11.95-2.39-18-.64-5.95-1.11-11.95-1.42-18-.33-5.96-.49-11.96-.49-18v-.21c0-5.97.15-11.9.46-17.79.31-6.05.78-12.04,1.41-18,.62-6.05,1.41-12.05,2.36-18,.95-6.05,2.07-12.06,3.36-18C202.62,135.48,339.8,20,504,20c98.64,0,187.53,41.68,249.95,108.35" style="fill: none; stroke: #000; stroke-miterlimit: 10; stroke-width: 5px;"/>
    <path d="M708,433.5c-29.42,84.14-109.64,144.5-204,144.5-46.92,0-90.35-14.93-125.77-40.29-35.81-25.62-63.44-61.91-78.23-104.21-2.06-5.89-3.87-11.89-5.42-18-1.5-5.91-2.75-11.91-3.74-18-.97-5.92-1.7-11.92-2.17-18-.45-5.61-.67-11.28-.67-17,0-.33,0-.67.01-1,.02-6.06.3-12.07.82-18,.53-6.08,1.31-12.08,2.35-18,1.05-6.09,2.36-12.1,3.92-18,1.61-6.11,3.49-12.12,5.61-18,29.98-83.09,109.68-142.5,203.29-142.5,65.54,0,124.27,29.13,163.88,75.12" style="fill: none; stroke: #000; stroke-miterlimit: 10; stroke-width: 5px;"/>
    <path d="M731.75,415.5c-1.45,6.1-3.13,12.1-5.05,18-30.42,93.73-118.62,161.5-222.7,161.5-51.38,0-98.89-16.52-137.49-44.52-39.59-28.72-69.81-69.52-85.21-116.98-1.92-5.9-3.6-11.9-5.05-18-1.4-5.91-2.58-11.92-3.52-18-.93-5.93-1.62-11.93-2.09-18-.45-5.94-.68-11.94-.68-18s.23-12.06.68-18c.47-6.07,1.16-12.07,2.09-18,.94-6.08,2.12-12.09,3.52-18,1.45-6.1,3.13-12.1,5.05-18,30.42-93.73,118.62-161.5,222.7-161.5,70.49,0,133.7,31.09,176.6,80.27" style="fill: none; stroke: #000; stroke-miterlimit: 10; stroke-width: 5px;"/>
    <path d="M753.51,397.5c-.87,6.07-1.96,12.08-3.26,18-1.33,6.08-2.88,12.09-4.65,18-31.04,103.81-127.46,179.5-241.6,179.5-56.08,0-107.88-18.27-149.75-49.17-43.36-31.99-76.06-77.52-91.85-130.33-1.77-5.91-3.32-11.92-4.65-18-1.3-5.92-2.39-11.93-3.26-18-.86-5.93-1.5-11.94-1.93-18-.43-5.94-.64-11.95-.64-18s.21-12.06.64-18c.43-6.06,1.07-12.07,1.93-18,.87-6.07,1.96-12.08,3.26-18,1.33-6.08,2.88-12.09,4.65-18,31.04-103.81,127.46-179.5,241.6-179.5,75.18,0,142.67,32.83,188.86,84.91" style="fill: none; stroke: #000; stroke-miterlimit: 10; stroke-width: 5px;"/>
    <path d="M773.53,379.5c-.39,6.06-.99,12.06-1.79,18-.81,6.07-1.82,12.07-3.04,18-1.23,6.08-2.68,12.08-4.33,18-31.56,113.88-136.18,197.5-260.37,197.5-60.78,0-116.86-20.02-161.99-53.82-47.1-35.26-82.27-85.52-98.38-143.68-1.65-5.92-3.1-11.92-4.33-18-1.22-5.93-2.23-11.93-3.04-18-.8-5.94-1.4-11.94-1.79-18-.4-5.95-.6-11.95-.6-18s.2-12.05.6-18c.39-6.06.99-12.06,1.79-18,.81-6.07,1.82-12.07,3.04-18,1.23-6.08,2.68-12.08,4.33-18,31.56-113.88,136.18-197.5,260.37-197.5,79.87,0,151.65,34.59,201.1,89.57" style="fill: none; stroke: #000; stroke-miterlimit: 10; stroke-width: 5px;"/>
    <path d="M791.99,361.5c.01.33.01.67.01,1,0,5.71-.17,11.38-.51,17-.34,6.05-.88,12.05-1.61,18-.74,6.06-1.66,12.07-2.78,18-1.13,6.07-2.46,12.07-3.98,18-31.72,124.44-144.92,216.5-279.7,216.5-65.6,0-126.07-21.8-174.54-58.52-51.13-38.74-88.89-94.09-105.17-157.98-1.52-5.93-2.85-11.93-3.98-18-1.12-5.93-2.04-11.94-2.78-18-.73-5.95-1.27-11.95-1.61-18-.34-5.62-.51-11.29-.51-17,0-.33,0-.67.01-1,0-6.05.22-12.05.62-18,.39-6.05.97-12.05,1.74-18,.78-6.06,1.75-12.06,2.91-18,1.18-6.07,2.55-12.07,4.11-18,32.42-123.43,145.13-214.5,279.2-214.5,84.52,0,160.56,36.2,213.32,93.89" style="fill: none; stroke: #000; stroke-miterlimit: 10; stroke-width: 5px;"/>
    <path d="M809.68,343.5c.35,5.95.53,11.96.53,18s-.18,12.05-.53,18c-.35,6.05-.87,12.05-1.58,18-.71,6.06-1.6,12.06-2.66,18-1.08,6.06-2.35,12.07-3.79,18-32.44,133.98-153.4,233.5-297.65,233.5-70.18,0-134.84-23.55-186.47-63.16-54.52-41.82-94.52-101.54-111.18-170.34-1.44-5.93-2.71-11.94-3.79-18-1.06-5.94-1.95-11.94-2.66-18-.71-5.95-1.23-11.95-1.58-18-.35-5.95-.53-11.96-.53-18s.18-12.05.53-18c.35-6.05.87-12.05,1.58-18,.71-6.06,1.6-12.06,2.66-18,1.08-6.06,2.35-12.07,3.79-18C238.79,155.52,359.75,56,504,56c89.26,0,169.61,38.11,225.57,98.91" style="fill: none; stroke: #000; stroke-miterlimit: 10; stroke-width: 5px;"/>
    <polyline points="300.71 289.5 606.04 289.5 707.29 289.5 726.7 289.5 745.6 289.5 764.37 289.5 782.61 289.5 801.65 289.5 820.77 289.5 838.41 289.5 856.63 289.5" style="fill: none; stroke: #000; stroke-miterlimit: 10; stroke-width: 5px;"/>
    <polyline points="0 289.5 72 289.5 143 289.5 150.37 289.5" style="fill: none; stroke: #000; stroke-miterlimit: 10; stroke-width: 5px;"/>
    <polyline points="295.1 307.5 589.52 307.5 712.9 307.5 731.75 307.5 750.25 307.5 768.7 307.5 786.72 307.5 805.44 307.5 824.35 307.5 841.77 307.5" style="fill: none; stroke: #000; stroke-miterlimit: 10; stroke-width: 5px;"/>
    <polyline points="0 307.5 72 307.5 143 307.5 147.14 307.5" style="fill: none; stroke: #000; stroke-miterlimit: 10; stroke-width: 5px;"/>
    <polyline points="291.18 325.5 573 325.5 716.82 325.5 735.27 325.5 753.51 325.5 771.74 325.5 789.63 325.5 808.1 325.5 826.89 325.5" style="fill: none; stroke: #000; stroke-miterlimit: 10; stroke-width: 5px;"/>
    <polyline points="0 325.5 72 325.5 143 325.5 144.86 325.5" style="fill: none; stroke: #000; stroke-miterlimit: 10; stroke-width: 5px;"/>
    <polyline points="288.83 343.5 556.48 343.5 719.17 343.5 737.36 343.5 755.44 343.5 773.53 343.5 791.37 343.5 809.68 343.5" style="fill: none; stroke: #000; stroke-miterlimit: 10; stroke-width: 5px;"/>
    <polyline points="0 343.5 72 343.5 143 343.5 143.48 343.5" style="fill: none; stroke: #000; stroke-miterlimit: 10; stroke-width: 5px;"/>
    <polyline points="288.01 361.5 539.96 361.5 719.99 361.5 738.04 361.5 756.08 361.5 774.13 361.5 791.99 361.5" style="fill: none; stroke: #000; stroke-miterlimit: 10; stroke-width: 5px;"/>
    <polyline points="0 361.5 72 361.5 143 361.5" style="fill: none; stroke: #000; stroke-miterlimit: 10; stroke-width: 5px;"/>
    <polyline points="288.67 379.5 523.44 379.5 719.33 379.5 737.36 379.5 755.44 379.5 773.53 379.5" style="fill: none; stroke: #000; stroke-miterlimit: 10; stroke-width: 5px;"/>
    <polyline points="0 379.5 72 379.5 143 379.5 143.41 379.5" style="fill: none; stroke: #000; stroke-miterlimit: 10; stroke-width: 5px;"/>
    <polyline points="290.84 397.5 506.92 397.5 717.16 397.5 735.27 397.5 753.51 397.5" style="fill: none; stroke: #000; stroke-miterlimit: 10; stroke-width: 5px;"/>
    <polyline points="0 397.5 72 397.5 143 397.5 144.72 397.5" style="fill: none; stroke: #000; stroke-miterlimit: 10; stroke-width: 5px;"/>
    <polyline points="294.58 415.5 490.4 415.5 713.42 415.5 731.75 415.5" style="fill: none; stroke: #000; stroke-miterlimit: 10; stroke-width: 5px;"/>
    <polyline points="0 415.5 72 415.5 143 415.5 146.93 415.5" style="fill: none; stroke: #000; stroke-miterlimit: 10; stroke-width: 5px;"/>
    <polyline points="300 433.5 473.88 433.5 708 433.5" style="fill: none; stroke: #000; stroke-miterlimit: 10; stroke-width: 5px;"/>
    <polyline points="0 433.5 72 433.5 143 433.5 150.07 433.5" style="fill: none; stroke: #000; stroke-miterlimit: 10; stroke-width: 5px;"/>
    <line x1="143" y1="361.5" x2="143" y2="362.25" style="fill: none; stroke: #000; stroke-miterlimit: 10; stroke-width: 5px;"/>
    <path d="M826.89,325.5c.67,5.95,1.18,11.95,1.51,18,.35,5.96.52,11.96.53,18v.5c0,5.87-.16,11.71-.47,17.5-.32,6.05-.81,12.05-1.47,18-.65,6.05-1.48,12.05-2.46,18-1.01,6.06-2.19,12.06-3.54,18-32.62,144.54-162.04,252.5-316.73,252.5-75.19,0-144.4-25.5-199.43-68.31-58.21-45.27-100.55-109.9-117.31-184.19-1.35-5.94-2.53-11.94-3.54-18-.98-5.95-1.81-11.95-2.46-18-.66-5.95-1.15-11.95-1.47-18-.31-5.79-.47-11.63-.47-17.5v-.5c.01-6.04.18-12.04.53-18,.33-6.05.84-12.05,1.51-18,.68-6.05,1.52-12.05,2.54-18,1.02-6.06,2.22-12.06,3.58-18C220.73,145.46,349.92,38,504.26,38c93.89,0,178.48,39.77,237.75,103.36" style="fill: none; stroke: #000; stroke-miterlimit: 10; stroke-width: 5px;"/>
  </g>
</svg>